<?xml version="1.0" encoding="UTF-8"?>
<!DOCTYPE svg PUBLIC "-//W3C//DTD SVG 1.1//EN" "http://www.w3.org/Graphics/SVG/1.1/DTD/svg11.dtd">
<!-- Creator: CorelDRAW 2019 (64-Bit) -->
<svg xmlns="http://www.w3.org/2000/svg" xml:space="preserve" width="203.2mm" height="114.3mm" version="1.1" style="shape-rendering:geometricPrecision; text-rendering:geometricPrecision; image-rendering:optimizeQuality; fill-rule:evenodd; clip-rule:evenodd"
viewBox="0 0 20320.02 11430.01"
 xmlns:xlink="http://www.w3.org/1999/xlink">
 <defs>
  <style type="text/css">
   <![CDATA[
    .fil3 {fill:none}
    .fil1 {fill:#FF7B00}
    .fil2 {fill:#FEFEFE;fill-rule:nonzero}
    .fil0 {fill:url(#id3)}
   ]]>
  </style>
    <clipPath id="id0">
     <path d="M-0 0l20320.02 0 0 11430.01 -20320.02 0 0 -11430.01z"/>
    </clipPath>
     <clipPath id="id1">
     </clipPath>
     <clipPath id="id2">
      <path d="M-0 0l20320.02 0 0 11430.01 -20320.02 0 0 -11430.01z"/>
     </clipPath>
  <linearGradient id="id3" gradientUnits="userSpaceOnUse" x1="13802.95" y1="-428.79" x2="6517.06" y2="11858.79">
   <stop offset="0" style="stop-opacity:1; stop-color:#030303"/>
   <stop offset="0.25098" style="stop-opacity:1; stop-color:#292929"/>
   <stop offset="0.341176" style="stop-opacity:1; stop-color:#303030"/>
   <stop offset="0.431373" style="stop-opacity:1; stop-color:#121212"/>
   <stop offset="0.741176" style="stop-opacity:1; stop-color:#121212"/>
   <stop offset="1" style="stop-opacity:1; stop-color:#030303"/>
  </linearGradient>
 </defs>
 <g id="Capa_x0020_1">
  <metadata id="CorelCorpID_0Corel-Layer"/>
  <g id="_2505762644912">
   <g>
   </g>
   <g style="clip-path:url(#id0)">
    <g id="_2505760689280">
     <rect class="fil0" x="-0" y="-0" width="20320.02" height="11430.01"/>
     <g>
      <g>
       <path class="fil1" d="M4978.49 5314.32l-56.62 55.32c-12.5,15.32 -23.97,28.09 -40.5,42.45 -23.91,20.78 -46,43.43 -70.27,64.05 -98.66,83.8 -204.48,117.84 -333.62,117.58 -139.43,-0.28 -256.46,-46.49 -359.17,-139.88 -43.16,-39.26 -89.07,-101.63 -131.91,-134.04 -8.89,-6.73 -12.63,-8 -23.94,-8.01 -11.66,-0.01 -15.4,1.1 -24.44,8.06 -43.12,33.21 -87.87,94.69 -131.83,134.39 -102.87,92.9 -220.25,138.17 -359.19,139.4 -57.83,0.52 -107.78,-19.81 -148.8,-60.57 -41.03,-40.75 -61.7,-90.56 -61.58,-148.38l0.14 -71.84c0.24,-113.26 91.19,-205.83 204.43,-208.06 32.54,-0.64 50.02,-24.22 69.19,-48.43 12.1,-15.29 24.09,-27.39 38.16,-40.52 121.67,-124.87 239.75,-196.38 422.03,-193.37 142.34,2.35 237.67,46.16 344.97,133.77 41.78,34.12 69.5,73.37 106.55,108.73 9.81,9.09 32.38,32.11 44.32,39.12 4.01,0.85 10.48,0.85 14.15,0.82 13.81,-0.12 16.98,-2.21 27.32,-11.36 36.94,-32.7 67.26,-74.72 105.55,-109.65 10.58,-11.32 20.51,-21.59 32.68,-31.74 175.03,-146.06 423.23,-176.86 620.26,-56.46 54.94,33.58 101.28,75.56 146.41,121.03 11.34,11.43 20.53,22.79 30.01,35.29 19.15,21.02 44.11,52.91 70.39,52.94 5.31,0.01 14.23,-1.19 17.62,-3.22 35.4,-29.22 57.04,-62 89.72,-92.65 127.19,-119.21 227.94,-188.48 414.13,-186.83 204.95,1.82 308.93,88.43 440.05,225.68 19.88,20.81 42.37,57.18 71.9,56.99 3.06,-0.03 7.41,-0.05 10.75,-0.55 6.52,-3.25 14.8,-9.18 21.05,-13.52 9.93,-8.05 23.16,-22.53 30.84,-32.21 11.87,-14.99 23.66,-26.99 37.52,-39.83 119.82,-124.84 235.13,-195.97 415.86,-196.59 183.79,-0.63 289.61,70.33 414.16,193.07 24.77,24.42 53.09,61.24 79.32,81.74 9.16,7.16 17.63,7.51 29.38,7.78 113,2.6 203.5,95.05 203.72,208.07l0.14 71.82c0.11,57.81 -20.55,107.6 -61.56,148.34 -41.01,40.75 -90.93,61.08 -148.74,60.59 -138.31,-1.17 -255.48,-45.9 -358.1,-138.21 -44.72,-40.23 -88.56,-100.84 -132.23,-134.93 -9.98,-7.8 -14.32,-8.86 -27.32,-8.71 -10.09,0.13 -13.24,1.33 -21.25,7.31 -42.7,31.91 -89.76,95.66 -132.89,134.77 -104.37,94.63 -223.32,140.57 -364.74,139.84 -195.91,-1.03 -326.49,-93.6 -448.26,-235.64 -14.56,-16.98 -40.08,-46.38 -65.27,-46.29 -30.85,0.1 -70.92,53.5 -87.2,73.68 -226.15,280.21 -629.72,275.41 -858.13,0.11 -17.88,-21.55 -41.84,-50.06 -64.44,-66.95 -8.52,-6.36 -30.13,-9.52 -40.72,-4.3z"/>
       <path class="fil1" d="M7798.4 4651.11l-4570.83 0c0,-905.33 1023.22,-1639.24 2285.42,-1639.24 1262.2,0 2285.41,733.91 2285.41,1639.24z"/>
       <path class="fil1" d="M3858.42 5776.61l3309.11 0c346.97,0 630.86,283.88 630.86,630.85l0 0.01c0,346.97 -283.89,630.85 -630.86,630.85l-3309.11 0c-346.97,0 -630.86,-283.88 -630.86,-630.85l0 -0.01c0,-346.97 283.89,-630.85 630.86,-630.85z"/>
       <path class="fil1" d="M3227.56 7274.99l4570.83 0 0 656.7c0,267.55 -218.9,486.46 -486.45,486.46l-3597.93 0c-267.54,0 -486.45,-218.91 -486.45,-486.46l0 -656.7z"/>
      </g>
      <g>
       <path class="fil1" d="M9855.21 4787.06l257.64 -1208.23c2.88,-13.51 13.43,-23.28 27.13,-25.13l356.4 -48.16c10.7,-1.45 20.54,2.08 27.87,10.01 7.34,7.91 10.11,18 7.84,28.56l-108.76 507.55c65.58,-48.19 141.21,-74.42 229.05,-74.42 190.96,0 299.44,112.35 299.44,304.23 0,89.44 -21.14,186.46 -41.97,273.27 -15.98,66.58 -34,132.68 -49.69,199.31 -10.69,45.42 -23.94,102.06 -23.94,148.72 0,47.4 14.68,69 64.2,69 72.37,0 107.29,-53.65 136.49,-112.13 -0.03,-2.48 -0.04,-4.97 -0.04,-7.45 0,-184.88 61.98,-403.79 156.67,-561.8 118.68,-198.03 296.99,-325.2 535.27,-325.2 245.28,0 333.33,172.12 339.96,390.05 51.98,-1.14 110.39,-18.77 159.68,-38.26l157.65 -738.15c2.9,-13.51 13.44,-23.28 27.13,-25.13l356.4 -48.16c10.68,-1.44 20.53,2.08 27.86,10 7.33,7.91 10.12,17.98 7.87,28.53l-277.07 1300.89c-5.32,23.09 -8.8,46.13 -8.8,69.85 0,50.12 18.86,56.96 66.6,56.96 94.1,0 161.41,-108.39 185.58,-187.77l163.46 -771.66c3.17,-15.02 16.09,-25.48 31.43,-25.48l346.77 0c10.03,0 18.65,4.12 24.97,11.9 6.3,7.79 8.54,17.08 6.46,26.89l-173.51 819.31c-5.33,23.09 -8.8,46.13 -8.8,69.85 0,50.12 18.86,56.96 66.6,56.96 66.97,0 121.88,-57.82 153.32,-112.54l-0.03 -4.35c-1.49,-178.79 54.92,-389.91 141.61,-545.46 114.92,-206.22 293.42,-344.23 538.29,-344.23 171.69,0 299.43,71.59 299.43,253.67 0,99.15 -45.05,207.92 -159.76,207.92 -36.71,0 -71.92,-14.16 -102.1,-34.27 -12.49,-8.33 -17.51,-23.62 -12.39,-37.73 14.88,-40.86 26.98,-87.33 26.98,-131.1 0,-24.21 -2.64,-66.6 -35.3,-66.6 -108.29,0 -210.43,305.87 -232.38,386.88 -24.76,91.4 -43.72,194.07 -43.72,288.97 0,116.8 19.88,170.14 141.24,170.14 157.22,0 259.52,-77.86 361.21,-186.94 7.22,-172.98 61.29,-367.64 146.8,-516.63 116.55,-203.08 295.03,-334.31 537.1,-334.31 208.55,0 309.3,124.42 333.72,312.36 49.94,-29.01 89.83,-93.45 115.29,-137.4 5.89,-10.19 16.01,-16.02 27.8,-16.02l77.06 0c11.29,0 21.01,5.32 27.09,14.84 6.08,9.54 6.81,20.59 2.04,30.83 -57.15,122.87 -126.96,255.56 -246.3,328.39 -22.29,294.1 -148.91,646.89 -456.77,744.08 -47.7,15.06 -97.22,22.53 -147.23,22.53 -190.94,0 -340.59,-74.88 -395.13,-250.49 -141.79,155.02 -317.06,255.31 -536.79,255.31 -157.27,0 -293.97,-52.15 -362.1,-189.73 -97.63,117.68 -228.14,189.73 -386.82,189.73 -130.75,0 -225.77,-64.14 -266.91,-177.12 -96.55,110.4 -223.49,177.12 -376.04,177.12 -193.23,0 -289.8,-135.18 -289.8,-321.1 0,-54.3 8.66,-110.24 19.97,-163.24l60.47 -283.09c-42.34,13.87 -85.72,24.83 -129.44,33.05 -30.54,287.38 -165.4,620.62 -466.42,709.6 -45.11,13.33 -91.73,19.96 -138.76,19.96 -150.85,0 -289.06,-46.95 -362.61,-175.22 -82.51,110.64 -188.74,180.04 -335.74,180.04 -191.86,0 -316.28,-112.89 -316.28,-304.25 0,-96.56 30.23,-213.7 52.66,-307.98 21.46,-90.3 55.7,-214.24 55.7,-306.07 0,-41.78 -5.72,-90.7 -56.97,-90.7 -70.55,0 -138.61,128.08 -151.59,186.46l-166.16 782.64c-3.19,15 -16.09,25.45 -31.43,25.45l-346.76 0c-10.02,0 -18.66,-4.12 -24.98,-11.92 -6.31,-7.79 -8.54,-17.1 -6.44,-26.91l26.52 -124.44c-143.3,125 -341.41,201.8 -527.29,201.8 -418.79,0 -559.5,-223.52 -559.5,-624.53 0,-510.14 248.95,-1284.33 872.55,-1284.33 232.95,0 434.29,94.33 434.29,354.81 0,132.56 -49.93,253.67 -200.7,253.67 -64.58,0 -119.12,-24.56 -161.58,-73.73 -6.69,-7.76 -9.2,-17.25 -7.18,-27.31 2,-10.04 7.96,-17.85 17.13,-22.42 57.17,-28.6 93.01,-131.33 93.01,-192.82 0,-74.62 -38.52,-114.76 -114.76,-114.76 -110.83,0 -205.43,136.74 -253.63,221.62 -88.88,156.49 -147.78,349.87 -181.01,526.1 -21.32,113.03 -34.12,229.63 -34.12,344.72 0,189.66 36.89,343.55 256.84,343.55 169.85,0 325.68,-79.34 430.96,-211.21zm3127.39 -1088.34c0,-123.36 98.37,-224.77 222.37,-224.77 123.7,0 224.77,101.07 224.77,224.77 0,124 -101.41,222.37 -224.77,222.37 -123.7,0 -222.37,-98.67 -222.37,-222.37zm2820.64 159.44l219.14 -455.13c5.48,-11.39 16.31,-18.19 28.95,-18.19l252.85 0c12.06,0 22.39,6.14 28.18,16.7 5.78,10.58 5.37,22.6 -1.12,32.76l-291.38 455.13c-6.09,9.49 -15.78,14.81 -27.06,14.81l-180.61 0c-11.37,0 -21.16,-5.41 -27.2,-15.04 -6.06,-9.62 -6.69,-20.78 -1.75,-31.04zm528.26 822.94c124.77,-222.52 212.04,-455.58 288.82,-698.28 3.84,-12.14 13.71,-20.45 26.33,-22.15l356.38 -48.17c9.26,-1.25 17.7,1.18 24.88,7.17 7.18,5.98 11.08,13.85 11.52,23.19 8.81,190.19 19.38,380.26 34.02,570.1 6.56,85.17 15.35,171.52 18.15,256.86 0.57,17.01 0.84,34.04 0.84,51.07 0,291.83 -244.59,448.73 -513.74,448.73 -204.78,0 -383.71,-122.32 -383.71,-340.37 0,-97.89 48.49,-200.56 136.51,-248.15zm-4537.1 -144.92c-44.84,-22.71 -61.6,-69.2 -61.6,-122.26 0,-60.72 23.24,-116.96 73.78,-148.77 -2.19,-41.74 -8.65,-88.81 -58.5,-88.81 -113.15,0 -209.5,258.77 -235.8,344.15 -28.5,92.52 -52.35,203.29 -52.35,300.4 0,35.14 -0.47,126.56 32.28,150.61 15.14,11.11 40.42,12.32 58.4,12.32 60.22,0 115.8,-81.71 141.44,-127.47 53.09,-94.73 85.43,-211.65 102.35,-320.17zm3261.19 -2.83c-41.73,-26.98 -55.02,-75 -55.02,-126.65 0,-57.85 19.32,-111.79 66.53,-143.38 -2.36,-41.14 -9.37,-86.98 -58.48,-86.98 -113.26,0 -206.31,261.17 -231.41,346.34 -27.22,92.38 -49.51,201.62 -49.51,298.21 0,35.14 -0.47,126.56 32.28,150.61 15.14,11.11 40.42,12.32 58.4,12.32 59.9,0 113.72,-81.45 138.53,-127.1 52.09,-95.84 82.95,-214.33 98.68,-323.37zm1588.87 -124.71c-38.7,98.09 -84.04,193.26 -132.1,287.54 28.53,23.02 45.49,56.74 45.49,95.81 0,76.29 -58.12,150.13 -138.09,150.13 -9.2,0 -18.49,-0.83 -27.52,-2.62 10.84,48.89 40.49,75.62 109.4,75.62 120.07,0 177.37,-73.12 177.37,-191.82 0,-16.71 -0.42,-33.41 -1.24,-50.11 -2.9,-58.75 -10.24,-118.01 -16.23,-176.54 -6.41,-62.64 -12.06,-125.29 -17.08,-188.01z"/>
       <path class="fil2" d="M10553.69 6932.86c-80.59,-275.93 -297.24,-388.52 -533.5,-510.91 -126.23,-64.82 -515.59,-246.07 -385.09,-460.15 120.69,-197.45 386.8,272.08 440.96,397.03 2.13,16.63 11.94,29.86 28.15,39.67 2.13,1.7 5.11,2.98 7.67,4.26 1.71,0.85 3.41,2.14 5.12,2.56 55.44,26.02 154.8,14.08 202.14,-24.73 1.28,-0.86 2.13,-1.71 2.99,-2.14 2.56,-2.56 4.69,-4.69 6.82,-7.25 11.09,-12.37 18.76,-26.44 18.76,-43.07 2.56,-177.4 31.99,-357.8 95.53,-524.12 39.66,-104.06 -231.14,-110.03 -266.97,-17.06 -20.89,55.44 -37.09,113.02 -51.59,171.01 -146.28,-162.91 -342.02,-274.64 -557.39,-198.3 -242.23,86.14 -267.82,351.4 -118.13,534.78 132.63,162.05 336.48,206.83 510.05,306.2 301.51,173.15 433.28,495.12 301.51,832.45 -86.58,222.62 -397.89,418.36 -566.34,151.82 -56.29,-89.13 -66.53,-214.51 -58,-316.86 8.52,-101.92 50.75,-342.88 204.7,-326.67 180.39,18.76 9.38,300.66 -54.16,360.36 -91.69,85.72 173.56,119.41 242.23,55.01 355.67,-333.49 -24.31,-744.6 -417.93,-527.53 -403.44,222.61 -302.37,913.91 121.11,1046.54 548.43,171.43 965.51,-450.77 821.36,-942.9l0 0zm1140.36 -1211.16c0.43,-101.07 -275.5,-84.01 -275.92,23.89 -1.71,454.18 -11.94,908.36 -30.28,1362.11 -152.67,-454.61 -346.71,-897.28 -561.22,-1319.47 -28.58,-83.16 -251.61,-65.67 -271.23,20.05 -0.43,2.13 -0.43,4.68 -0.43,6.81 -0.42,3.42 -1.28,6.83 -0.85,10.24 47.34,545.45 62.69,1103.26 0,1648.7 -11.09,94.67 263.13,85.29 275.92,-24.31 35.82,-312.17 45.63,-629.02 38.8,-945.03 203.43,475.92 370.6,969.77 472.95,1474.27 -2.98,46.48 57.58,67.81 122.4,66.1 79.32,0.85 165.47,-33.26 153.53,-89.98 50.74,-743.32 73.77,-1488.77 76.33,-2233.38l0 0zm1268.72 1765.13c-75.06,-164.62 -142.87,-330.94 -204.7,-498.96 10.66,-3.84 21.75,-7.26 32.41,-11.09 95.96,-35.82 110.88,-313.88 6.82,-275.07 -40.51,14.93 -81.45,29 -122.39,42.22 -101.92,-320.27 -177.4,-648.65 -216.21,-988.11 -5.55,-49.04 -69.09,-69.09 -133.92,-66.53 -70.79,-4.69 -151.38,20.04 -159.92,70.37 -70.36,407.27 -186.78,791.94 -341.17,1165.09 -14.49,2.13 -28.99,4.26 -43.49,6.39 -74.64,11.09 -108.33,175.28 -67.38,244.79 -52.03,112.16 -106.62,223.47 -165.47,334.35 -49.47,93.39 222.18,106.62 269.52,17.06 62.69,-117.71 120.27,-235.84 175.28,-354.82 170.58,-28.14 341.16,-61.41 508.34,-105.33 60.55,162.48 127.09,323.68 200.01,483.17 40.51,89.14 311.31,43.51 262.27,-63.53l0 0zm-842.68 -610.27c64.82,-161.63 121.53,-325.82 171.01,-492.99 34.54,145.85 75.91,289.99 121.96,432.43 -96.8,23.03 -194.89,43.08 -292.97,60.56l0 0zm2022.28 -333.49c-13.65,-105.34 -289.57,-78.9 -275.93,23.88 31.14,237.11 -8.52,779.99 -316.43,865.71 -285.3,79.75 -438.83,-454.61 -453.75,-645.66 -17.06,-215.79 21.75,-439.25 115.57,-635 33.69,-69.94 84.86,-181.24 155.23,-223.89 103.2,-61.84 144.15,8.1 205.13,106.19 -131.36,278.48 -232.85,575.72 -267.4,878.5 -10.66,95.11 263.56,85.3 275.93,-23.88 44.35,-385.09 210.67,-766.35 397.88,-1102.82 50.75,-91.69 -220.05,-106.19 -269.52,-17.06 -8.1,14.07 -15.78,29 -23.46,43.5 -153.94,-106.62 -350.55,-110.03 -524.11,26.01 -279.33,219.2 -374.01,666.14 -338.61,1001.76 37.95,362.06 286.58,792.36 703.23,755.26 497.25,-44.35 670.82,-634.57 616.24,-1052.5l0 0zm694.7 -93.4c-91.26,118.13 -217.07,266.11 -361.64,345.43 151.82,-294.25 316.01,-582.54 490.44,-864.01 53.3,-86.57 -216.22,-103.63 -269.53,-17.05 -86.15,139.03 -169.73,279.75 -250.76,421.77 17.48,-175.28 37.1,-350.12 55.01,-522.85 9.81,-95.94 -264.4,-85.29 -275.92,23.89 -56.29,536.91 -129.21,1094.29 -90.83,1634.19 7.25,103.63 283.59,81.46 275.92,-24.31 -10.66,-151.38 -11.94,-304.48 -8.1,-458.01 108.74,-21.75 210.24,-66.53 303.64,-126.24 -79.33,338.19 -100.22,697.27 -14.5,1028.63 27.29,105.76 300.65,71.22 275.91,-24.31 -117.27,-452.48 -34.97,-952.28 127.52,-1380.45 42.22,-111.31 -213.66,-93.39 -257.16,-36.68l0 0zm1145.47 127.94c-199.58,-137.32 -550.98,-182.95 -629.45,-441.38 -24.32,-81.03 -18.34,-202.15 84.86,-198.74 153.53,5.12 303.65,313.45 356.1,447.78 1.27,17.49 11.51,31.14 27.29,40.94 49.04,35.4 158.65,26.02 212.38,-14.07 2.56,-2.13 5.12,-3.84 7.68,-5.97 0,0 0,0 0.42,-0.43 14.93,-13.21 24.31,-29.42 24.31,-49.04 2.99,-176.98 31.99,-357.8 95.52,-524.12 39.67,-103.62 -231.13,-110.02 -266.53,-17.06 -20.89,54.59 -37.1,111.31 -51.18,168.46 -136.47,-150.12 -317.29,-254.18 -519.85,-207.69 -196.6,45.2 -307.48,247.78 -228.58,434.56 153.52,364.2 669.11,333.49 858.89,670.83 145.42,259.71 36.67,643.1 -327.1,555.68 -299.37,-72.08 -378.69,-690.02 -55.01,-559.95 87.42,35.39 328.8,-64.82 183.81,-122.82 -327.53,-131.34 -759.11,-4.27 -670.4,426.04 86.57,419.63 620.07,503.22 952.71,336.9 415.37,-207.26 271.23,-715.6 -55.87,-939.92l0 0z"/>
      </g>
     </g>
    </g>
    <g style="clip-path:url(#id1)">
     <image x="-17807.16" y="2693.05" width="15802.29" height="9599.91" xlink:href="background_Images\background_ImgID1.png"/>
    </g>
    <g style="clip-path:url(#id2)">
    </g>
   </g>
   <polygon class="fil3" points="-0,0 20320.02,0 20320.02,11430.01 -0,11430.01 "/>
   <polygon class="fil2" points="10440.1,10297.66 10560.21,10429.62 10700.05,10295.87 10748.56,10346.86 10556.69,10530.37 10388.01,10345.06 "/>
   <polygon class="fil2" points="10440.1,10507.48 10560.21,10639.43 10700.05,10505.69 10748.56,10556.68 10556.69,10740.18 10388.01,10554.88 "/>
   <path class="fil2" d="M10109.91 10166.26l-82.72 -214.05 30.7 0 55.6 155.56c4.44,12.45 8.22,24.11 11.21,35.02 3.29,-11.71 7.13,-23.36 11.51,-35.02l57.71 -155.56 28.9 0 -83.47 214.05 -29.44 0zm224.47 -50.22l27.21 3.58c-4.24,15.8 -12.16,28.11 -23.72,36.83 -11.56,8.72 -26.31,13.1 -44.3,13.1 -22.62,0 -40.56,-6.97 -53.81,-20.93 -13.25,-13.9 -19.88,-33.48 -19.88,-58.64 0,-26.01 6.68,-46.24 20.08,-60.59 13.4,-14.4 30.79,-21.58 52.17,-21.58 20.68,0 37.57,7.03 50.67,21.13 13.11,14.1 19.68,33.93 19.68,59.49 0,1.55 -0.05,3.89 -0.15,6.98l-115.54 0c0.99,16.99 5.78,30.04 14.45,39.06 8.62,9.02 19.43,13.56 32.33,13.56 9.62,0 17.84,-2.55 24.62,-7.63 6.82,-5.08 12.2,-13.2 16.19,-24.36zm-86.1 -42.16l86.4 0c-1.15,-13.05 -4.48,-22.82 -9.92,-29.34 -8.32,-10.12 -19.18,-15.2 -32.48,-15.2 -12.06,0 -22.18,4.03 -30.4,12.11 -8.17,8.07 -12.7,18.88 -13.6,32.43zm146.24 92.38l0 -155.16 23.62 0 0 23.77c6.03,-11.01 11.61,-18.29 16.74,-21.77 5.13,-3.54 10.76,-5.29 16.89,-5.29 8.87,0 17.89,2.79 27.06,8.32l-9.37 24.27c-6.38,-3.59 -12.76,-5.38 -19.13,-5.38 -5.73,0 -10.87,1.74 -15.4,5.18 -4.53,3.44 -7.77,8.22 -9.72,14.35 -2.94,9.32 -4.38,19.53 -4.38,30.64l0 81.07 -26.31 0zm182.91 0l0 -155.16 23.62 0 0 21.93c4.83,-7.58 11.31,-13.71 19.38,-18.29 8.08,-4.63 17.24,-6.93 27.56,-6.93 11.46,0 20.88,2.4 28.2,7.13 7.32,4.78 12.51,11.41 15.5,19.98 12.35,-18.09 28.35,-27.11 48.08,-27.11 15.45,0 27.35,4.24 35.63,12.76 8.32,8.52 12.5,21.62 12.5,39.31l0 106.38 -26.31 0 0 -97.66c0,-10.46 -0.89,-18.04 -2.59,-22.67 -1.69,-4.63 -4.78,-8.32 -9.32,-11.16 -4.48,-2.84 -9.76,-4.24 -15.79,-4.24 -10.96,0 -20.03,3.64 -27.26,10.87 -7.22,7.27 -10.81,18.88 -10.81,34.83l0 90.03 -26.31 0 0 -100.7c0,-11.66 -2.14,-20.43 -6.42,-26.26 -4.29,-5.83 -11.31,-8.77 -21.03,-8.77 -7.38,0 -14.2,1.95 -20.48,5.83 -6.28,3.89 -10.81,9.57 -13.65,17.09 -2.79,7.48 -4.19,18.29 -4.19,32.39l0 80.42 -26.31 0zm350.39 -19.43c-9.77,8.32 -19.19,14.15 -28.21,17.59 -9.01,3.44 -18.68,5.13 -29.04,5.13 -17.05,0 -30.15,-4.13 -39.32,-12.46 -9.17,-8.27 -13.75,-18.88 -13.75,-31.79 0,-7.57 1.74,-14.49 5.18,-20.77 3.49,-6.28 8.02,-11.26 13.6,-15.05 5.64,-3.79 11.91,-6.68 18.94,-8.62 5.18,-1.35 13,-2.64 23.42,-3.94 21.22,-2.49 36.92,-5.53 46.93,-9.02 0.1,-3.58 0.15,-5.87 0.15,-6.82 0,-10.66 -2.49,-18.19 -7.47,-22.57 -6.73,-5.93 -16.74,-8.87 -30,-8.87 -12.4,0 -21.57,2.19 -27.45,6.53 -5.93,4.33 -10.26,12 -13.1,23.06l-25.72 -3.58c2.35,-11.01 6.18,-19.93 11.56,-26.71 5.39,-6.78 13.16,-11.96 23.32,-15.65 10.12,-3.63 21.93,-5.48 35.28,-5.48 13.25,0 24.07,1.55 32.39,4.69 8.27,3.14 14.4,7.02 18.28,11.76 3.89,4.73 6.63,10.71 8.23,17.93 0.84,4.49 1.29,12.56 1.29,24.17l0 34.88c0,24.36 0.55,39.76 1.65,46.29 1.04,6.52 3.23,12.75 6.42,18.73l-27.5 0c-2.64,-5.53 -4.34,-12.01 -5.08,-19.43zm-2.1 -58.3c-9.56,3.89 -23.91,7.18 -43.05,9.87 -10.86,1.54 -18.53,3.29 -23.02,5.23 -4.48,1.94 -7.92,4.78 -10.36,8.47 -2.44,3.74 -3.69,7.87 -3.69,12.46 0,6.92 2.64,12.75 7.97,17.39 5.34,4.63 13.11,6.97 23.32,6.97 10.12,0 19.14,-2.19 27.06,-6.62 7.87,-4.39 13.7,-10.42 17.39,-18.04 2.84,-5.93 4.23,-14.65 4.23,-26.16l0.15 -9.57zm-55.3 -96.56l19.13 -40.96 34.68 0 -31.99 40.96 -21.82 0zm111.86 127.95l26 -4.18c1.45,10.41 5.54,18.38 12.21,23.96 6.68,5.54 16.05,8.33 28,8.33 12.11,0 21.08,-2.45 26.96,-7.38 5.83,-4.88 8.77,-10.66 8.77,-17.29 0,-5.93 -2.64,-10.61 -7.87,-14 -3.69,-2.34 -12.66,-5.28 -26.91,-8.92 -19.23,-4.83 -32.54,-9.02 -40.01,-12.55 -7.42,-3.59 -13.05,-8.48 -16.89,-14.75 -3.84,-6.23 -5.78,-13.16 -5.78,-20.73 0,-6.93 1.59,-13.31 4.73,-19.18 3.19,-5.88 7.48,-10.77 12.91,-14.65 4.08,-2.99 9.66,-5.53 16.69,-7.63 7.08,-2.09 14.6,-3.14 22.67,-3.14 12.16,0 22.82,1.75 31.99,5.29 9.22,3.48 15.99,8.27 20.38,14.25 4.33,6.02 7.37,14.05 9.02,24.11l-25.71 3.59c-1.15,-8.07 -4.54,-14.4 -10.12,-18.93 -5.58,-4.54 -13.45,-6.78 -23.67,-6.78 -12,0 -20.62,1.99 -25.76,5.98 -5.13,3.98 -7.72,8.67 -7.72,14 0,3.39 1.05,6.48 3.19,9.22 2.14,2.79 5.48,5.13 10.07,6.97 2.64,1 10.31,3.24 23.16,6.73 18.54,4.93 31.5,9.02 38.87,12.16 7.37,3.14 13.15,7.77 17.34,13.75 4.23,6.03 6.33,13.5 6.33,22.47 0,8.72 -2.54,16.94 -7.68,24.67 -5.13,7.72 -12.5,13.7 -22.12,17.93 -9.67,4.24 -20.58,6.33 -32.74,6.33 -20.13,0 -35.52,-4.18 -46.09,-12.51 -10.56,-8.37 -17.28,-20.72 -20.22,-37.12z"/>
  </g>
 </g>
</svg>
