<?xml version="1.0" encoding="UTF-8"?>
<!DOCTYPE svg PUBLIC "-//W3C//DTD SVG 1.1//EN" "http://www.w3.org/Graphics/SVG/1.1/DTD/svg11.dtd">
<!-- Creator: CorelDRAW 2019 (64-Bit) -->
<svg xmlns="http://www.w3.org/2000/svg" xml:space="preserve" width="542.907mm" height="174.464mm" version="1.1" style="shape-rendering:geometricPrecision; text-rendering:geometricPrecision; image-rendering:optimizeQuality; fill-rule:evenodd; clip-rule:evenodd"
viewBox="0 0 12846.4 4128.21"
 xmlns:xlink="http://www.w3.org/1999/xlink">
 <defs>
  <style type="text/css">
   <![CDATA[
    .fil0 {fill:#EEEEEE}
   ]]>
  </style>
 </defs>
 <g id="Capa_x0020_1">
  <metadata id="CorelCorpID_0Corel-Layer"/>
  <g id="_1528955106368">
   <path class="fil0" d="M5094.08 1437.54c411.24,-422.07 899.75,-37.75 964.47,-26.61 11.21,-293.95 70.32,-500.12 224.95,-726.8 35.34,-51.8 103.61,-135.77 146.96,-168.25 79.08,78.6 183.5,290.39 227.51,403.59 63.73,163.9 94.51,351.26 104.11,542.51 101.59,-35.54 212.06,-154.48 477.46,-157.76 96.84,-1.19 189.35,18.82 267.86,51.65 83.31,34.83 138.55,75.12 192.68,125.87 -20.17,20.83 -74.42,48 -103.13,65.37 -239.27,144.76 -464.26,328.85 -645.54,531.46 -162.84,182 -299.36,362.28 -414.08,587.58 -21.45,42.13 -96.57,207.04 -115.42,226.87 -100.36,-315.43 -349.71,-680.83 -526.69,-859.74 -29.49,-29.81 -49.83,-56.08 -81.01,-86.02 -117.3,-112.66 -140.64,-130.37 -283.42,-242.43 -62.5,-49.05 -142.17,-97.78 -211.95,-138.78l-167.68 -91.01c-9.26,-4.37 -17.87,-7.75 -27.96,-13.62l-29.14 -23.89zm822.2 -285.74c-40.79,-1.28 -166.79,-102.04 -387.78,-129.66 -394.27,-49.28 -668.99,152.12 -860.02,451.2 -26.08,40.83 -81.3,123.41 -98.28,166.72 226.53,65.34 431.72,98.85 633.58,199.65 421.11,210.29 653.04,404.74 919.27,758.52 160.93,213.87 189.93,330.18 301.54,541.35 19.38,-28.25 42.37,-106.5 58.06,-144.34 22.62,-54.57 40.98,-93.82 65.46,-142.82 173.53,-347.35 461.7,-669.62 796.26,-873.49 83.89,-51.12 173.54,-100.06 273.89,-143.6 206.49,-89.6 427.06,-138.73 664.02,-179.78 -19.42,-37.82 -189.9,-247.68 -223.33,-283.55 -175.16,-188 -448.71,-307.96 -719.2,-303.08 -208.96,3.77 -265.5,53.76 -417.96,105.34 -11.16,-342.67 -110.01,-666.31 -289.31,-938.47 -52.39,-79.52 -113.81,-166.82 -171.82,-235.79 -142.91,163.96 -247.45,225.94 -371.77,472.93 -100.08,198.83 -174.9,413.28 -172.61,678.87z"/>
   <path class="fil0" d="M6833.13 3951.61c224.22,-585.49 475.76,-1024 1001.46,-1374 531.25,-353.71 1146.75,-528.64 1826.83,-203.69 287.24,137.25 474.13,369.13 499.54,693.53 70.88,904.53 -1052.59,1023.25 -1237.33,461.85 -56.89,-172.88 12.19,-358.26 108.63,-438.58 142.35,-118.55 263.59,-114.54 462.59,-65.91 -63.77,-55.91 -185.58,-90.07 -293.86,-85.12 -310.19,14.18 -510.71,315.09 -448.22,635.03 72.67,372.08 451.03,603.06 907.3,544.44 414.41,-53.24 687.87,-318.66 792.55,-676.69 133.51,-456.63 -26.82,-876.76 -266.63,-1117.33 -260.52,-261.35 -647.5,-404.68 -1034.8,-443.73 -620.16,-62.53 -1172.99,230.3 -1588.52,599.68 -118.79,105.6 -232.35,243.09 -338.74,395.64 -174.13,249.68 -391.06,768.93 -390.8,1074.88z"/>
   <path class="fil0" d="M3342.44 3024.84c96.49,-19.92 143.35,-47.07 262.81,-27.37 271.05,44.69 388.99,316.43 306.54,540.46 -206.37,560.72 -1300.34,417.36 -1234.51,-467.5 26.93,-362.02 244.2,-568.84 492.02,-692.12 660.16,-328.39 1307.21,-152.13 1827.22,194.32 428.81,285.68 726.82,682.01 923.41,1155.51 14.73,35.48 29.16,71.27 42.64,107.36l35.23 92.05c0.73,1.44 2.94,7.26 3.49,5.99 0.55,-1.29 2.3,4.08 3.62,6.01 -18.23,-444.03 -280.59,-932.31 -520.76,-1236.32 -55.07,-69.7 -78.93,-88.53 -131.54,-144 -23.18,-24.45 -60.93,-65.75 -90.16,-93.62 -19.54,-18.64 -30.14,-23.77 -51.23,-40.62 -21.56,-17.22 -28.32,-24.56 -49.98,-41.85 -400.79,-320.02 -932.67,-573.08 -1500.56,-498.23 -222.84,29.37 -390.45,73.35 -580.68,153.48 -85.99,36.22 -165.92,81.37 -237.86,129.46 -38.95,26.04 -78.25,53.33 -105.55,78.33 -36.2,33.17 -65.43,54.33 -94.96,88.42 -112.18,129.51 -210.5,256.09 -264.79,478.19 -144.31,590.43 139.22,1233.72 819.93,1308.54 456.49,50.18 824.66,-185.08 892.61,-564.3 41.21,-230.01 -66.95,-422.8 -188.84,-522.46 -143.53,-117.34 -408.44,-120.2 -558.11,-9.73z"/>
   <path class="fil0" d="M10940.5 3159.6c24.25,117.5 145.65,216.02 290.48,185.41 313.64,-66.29 212.78,-546.14 -102.39,-477.43 -118.98,25.94 -219.31,140.71 -188.09,292.02z"/>
   <path class="fil0" d="M1907.83 3151.26c29.17,-145.67 -76.56,-261.43 -192.59,-284.67 -145.86,-29.21 -264.53,73.71 -287.08,191.23 -61.99,323.05 416.71,407.91 479.67,93.44z"/>
   <path class="fil0" d="M12166.26 3167.95c83.72,-218.81 -252.18,-346.05 -336.18,-126.12 -84.67,221.66 249.9,351.64 336.18,126.12z"/>
   <path class="fil0" d="M672.27 3134.56c29.22,219.84 386.75,189.54 354.39,-55.93 -12.18,-92.39 -99.04,-162.65 -204.03,-149.77 -90.34,11.09 -164.6,98.53 -150.36,205.7z"/>
   <path class="fil0" d="M5.98 3142.91c39.71,144.3 278.05,94.98 234.8,-71.5 -37.12,-142.91 -281.85,-99.49 -234.8,71.5z"/>
   <path class="fil0" d="M12602.27 3126.21c19.76,144.74 265.71,127.26 242.59,-38.47 -20.79,-149.02 -265.26,-127.54 -242.59,38.47z"/>
  </g>
 </g>
</svg>
