<?xml version="1.0" encoding="UTF-8"?>
<!DOCTYPE svg PUBLIC "-//W3C//DTD SVG 1.1//EN" "http://www.w3.org/Graphics/SVG/1.1/DTD/svg11.dtd">
<!-- Creator: CorelDRAW 2019 (64-Bit) -->
<svg xmlns="http://www.w3.org/2000/svg" xml:space="preserve" width="46.2839mm" height="25.5098mm" version="1.1" style="shape-rendering:geometricPrecision; text-rendering:geometricPrecision; image-rendering:optimizeQuality; fill-rule:evenodd; clip-rule:evenodd"
viewBox="0 0 726.28 400.3"
 xmlns:xlink="http://www.w3.org/1999/xlink">
 <defs>
  <style type="text/css">
   <![CDATA[
    .fil0 {fill:#FEFEFE}
    .fil1 {fill:#FEFEFE;fill-rule:nonzero}
   ]]>
  </style>
 </defs>
 <g id="Capa_x0020_1">
  <metadata id="CorelCorpID_0Corel-Layer"/>
  <g id="_1528952489696">
   <g>
    <g>
     <path class="fil0" d="M641.46 69.15c-4.04,0.58 -6.28,-3.42 -7.52,-6.3 -1.97,-4.58 -5.92,-5.65 -4.28,-8.91 2.04,-4.04 7.83,1.4 8.74,2.48 2.19,2.62 6.07,9.79 3.06,12.72zm-32.18 -28.84c-6.02,0.84 -9.52,2.11 -14.12,4.52 -3.71,1.95 -7.94,5.51 -10.18,8.3 -2.54,3.17 -5.69,7.45 -6.82,11.65 -1.2,4.46 -1.72,12.17 -1.16,17.11 0.72,6.32 1.61,9.47 4.45,13.99 7.31,11.67 21.67,19.67 37.25,17.56 11.26,-1.52 18.61,-6.77 24.09,-12.87 7.1,-7.89 8.95,-17.92 8.18,-28.71 -1.39,-19.46 -21.85,-34.32 -41.69,-31.56z"/>
     <path class="fil0" d="M527.35 27.25l5.58 7.21c9.53,11.85 18.84,24.18 28.35,36l11.28 14.37c-0.51,-5.95 -1.32,-7.66 -0.19,-14.68 1.95,-12.15 9.45,-22.48 19.65,-28.5 11.38,-6.72 25.86,-8.08 38.93,-2.46 4.06,1.75 6.8,3.64 10.11,6.15 -10,-13.27 -26.9,-23.44 -48.92,-26.41 -17.1,-2.31 -34.02,-0.57 -50.46,3.75 -2.72,0.72 -12.21,3.46 -14.33,4.56z"/>
     <path class="fil0" d="M589.25 110.23c10.56,13.07 30.97,22.05 48.75,23.71 11.81,1.1 22.45,0.96 33.78,-0.96 10.97,-1.85 19.23,-4.47 28.83,-7.61 -0.7,-1.15 -1.94,-2.56 -2.78,-3.62l-42.98 -54.44c4.94,20.4 -6.24,36.39 -17.41,43.72 -10.76,7.06 -24.74,9.21 -37.92,4.55 -2.82,-1 -8.59,-3.69 -10.27,-5.34z"/>
     <path class="fil0" d="M552.96 77.79c0.01,4.88 0.38,9.4 1.2,13.89 2.06,11.33 8.71,21.57 16.54,28.75 10.02,9.19 24.02,17.05 43.38,17.02 4.78,-0.01 8.06,-0.54 12.41,-1.16 -1.25,0.25 -11.59,-3.44 -13.26,-4.11 -16.29,-6.56 -30.04,-18.04 -36.71,-34.37 -1.01,-2.46 -1.69,-3.04 -3.52,-5.33l-19.54 -24.76c-0.55,2.71 -0.5,7.02 -0.49,10.06z"/>
     <path class="fil0" d="M604.28 17.03c6.09,0.7 18.68,6.96 24.05,10.5 11.44,7.54 18.28,16.03 23.46,28.38 0.51,1.23 2.79,3.82 3.66,4.94 1.27,1.6 2.44,3.13 3.8,4.82l15.15 19.25c0.58,-11.5 1.51,-20.39 -3.07,-31.13 -6.82,-15.98 -20.12,-28.19 -36.48,-33.97 -8.18,-2.89 -20.9,-4.84 -30.58,-2.79z"/>
    </g>
    <g>
     <path class="fil1" d="M480.63 178.36l4.98 0c1.62,0 2.94,-0.44 3.95,-1.33 1.01,-0.88 1.51,-2.07 1.51,-3.54 0,-1.52 -0.5,-2.71 -1.49,-3.6 -0.99,-0.89 -2.32,-1.33 -3.98,-1.33l-4.98 0 0 9.79zm5.84 7.36l-5.9 0 0 13.8 -8.55 0 0 -38.36 14.45 0c3.9,0 7.06,1.15 9.5,3.46 2.44,2.31 3.65,5.25 3.65,8.82 0,3.64 -1.22,6.6 -3.65,8.87 -2.44,2.27 -5.6,3.41 -9.5,3.41zm15.91 6.39c0,-2.27 0.74,-4.1 2.22,-5.49 1.48,-1.39 3.39,-2.26 5.74,-2.62l6.33 -0.97c1.3,-0.18 1.95,-0.79 1.95,-1.84 0,-0.83 -0.35,-1.52 -1.05,-2.08 -0.7,-0.56 -1.67,-0.84 -2.9,-0.84 -1.37,0 -2.46,0.39 -3.27,1.16 -0.81,0.78 -1.25,1.7 -1.33,2.79l-7.14 -1.46c0.18,-2.24 1.29,-4.28 3.33,-6.14 2.04,-1.86 4.86,-2.79 8.47,-2.79 4.08,0 7.08,0.97 9.01,2.92 1.93,1.95 2.89,4.44 2.89,7.47l0 13.15c0,1.69 0.11,3.08 0.32,4.17l-7.41 0c-0.18,-0.72 -0.27,-1.73 -0.27,-3.03 -1.55,2.52 -4.08,3.79 -7.57,3.79 -2.85,0 -5.11,-0.8 -6.79,-2.41 -1.68,-1.61 -2.52,-3.53 -2.52,-5.76zm11.31 2.22c1.41,0 2.58,-0.42 3.52,-1.24 0.94,-0.83 1.41,-2.2 1.41,-4.11l0 -1.19 -5.09 0.81c-2.02,0.32 -3.03,1.32 -3.03,2.98 0,0.76 0.26,1.41 0.78,1.95 0.52,0.54 1.33,0.81 2.41,0.81zm36.96 -21.7l0 8.12c-0.76,-0.18 -1.62,-0.27 -2.6,-0.27 -1.84,0 -3.35,0.59 -4.52,1.79 -1.17,1.19 -1.76,3.03 -1.76,5.52l0 11.74 -8.22 0 0 -26.89 7.95 0 0 3.62c0.65,-1.37 1.64,-2.36 2.98,-2.98 1.34,-0.61 2.67,-0.92 4,-0.92 0.83,0 1.55,0.09 2.16,0.27zm10.88 10.23l10.77 0c-0.07,-1.23 -0.55,-2.29 -1.43,-3.19 -0.89,-0.9 -2.21,-1.35 -3.98,-1.35 -1.59,0 -2.85,0.47 -3.79,1.41 -0.94,0.94 -1.46,1.98 -1.57,3.14zm11.36 6.98l6.87 1.95c-0.69,2.49 -2.11,4.54 -4.27,6.14 -2.17,1.61 -4.87,2.41 -8.12,2.41 -3.89,0 -7.2,-1.3 -9.93,-3.89 -2.72,-2.6 -4.08,-6.08 -4.08,-10.44 0,-4.19 1.33,-7.59 3.98,-10.23 2.65,-2.63 5.8,-3.95 9.44,-3.95 4.19,0 7.48,1.22 9.87,3.65 2.4,2.44 3.6,5.82 3.6,10.14 0,1.37 -0.05,2.22 -0.16,2.54l-18.72 0c0.07,1.48 0.7,2.71 1.89,3.71 1.19,0.99 2.6,1.49 4.22,1.49 2.78,0 4.58,-1.17 5.41,-3.52zm20.88 9.69l-8.22 0 0 -26.89 8.22 0 0 26.89zm-7.52 -31.71c-0.94,-0.94 -1.41,-2.07 -1.41,-3.41 0,-1.34 0.47,-2.47 1.41,-3.41 0.94,-0.94 2.06,-1.41 3.35,-1.41 1.34,0 2.48,0.47 3.44,1.41 0.96,0.94 1.43,2.07 1.43,3.41 0,1.33 -0.48,2.47 -1.43,3.41 -0.96,0.94 -2.1,1.41 -3.44,1.41 -1.3,0 -2.42,-0.47 -3.35,-1.41zm23.81 23.64l4.98 0c3.14,0 5.71,-0.94 7.71,-2.81 2,-1.88 3,-4.64 3,-8.28 0,-3.68 -1,-6.46 -3,-8.33 -2,-1.88 -4.57,-2.81 -7.71,-2.81l-4.98 0 0 22.24zm5.3 8.06l-13.85 0 0 -38.36 13.91 0c5.81,0 10.47,1.73 13.99,5.19 3.52,3.46 5.28,8.13 5.28,14.01 0,5.88 -1.76,10.54 -5.28,13.99 -3.52,3.44 -8.2,5.17 -14.04,5.17zm37.5 -6.76c1.69,0 3.13,-0.58 4.3,-1.73 1.17,-1.15 1.76,-2.81 1.76,-4.98 0,-2.16 -0.59,-3.81 -1.76,-4.95 -1.17,-1.14 -2.61,-1.7 -4.3,-1.7 -1.66,0 -3.09,0.58 -4.27,1.73 -1.19,1.15 -1.79,2.8 -1.79,4.92 0,2.13 0.59,3.78 1.79,4.95 1.19,1.17 2.61,1.76 4.27,1.76zm0 -20.94c4.08,0 7.48,1.33 10.2,4 2.72,2.67 4.08,6.08 4.08,10.23 0,4.15 -1.36,7.57 -4.08,10.25 -2.72,2.69 -6.12,4.03 -10.2,4.03 -4.04,0 -7.43,-1.35 -10.17,-4.06 -2.74,-2.71 -4.11,-6.11 -4.11,-10.23 0,-4.11 1.37,-7.51 4.11,-10.2 2.74,-2.69 6.13,-4.03 10.17,-4.03zm27.81 27.7l-8.22 0 0 -39.17 8.22 0 0 39.17zm15.48 0l-8.22 0 0 -26.89 8.22 0 0 26.89zm-7.52 -31.71c-0.94,-0.94 -1.41,-2.07 -1.41,-3.41 0,-1.34 0.47,-2.47 1.41,-3.41 0.94,-0.94 2.06,-1.41 3.35,-1.41 1.34,0 2.48,0.47 3.44,1.41 0.96,0.94 1.43,2.07 1.43,3.41 0,1.33 -0.48,2.47 -1.43,3.41 -0.96,0.94 -2.1,1.41 -3.44,1.41 -1.3,0 -2.42,-0.47 -3.35,-1.41zm13.09 24.29c0,-2.27 0.74,-4.1 2.22,-5.49 1.48,-1.39 3.39,-2.26 5.74,-2.62l6.33 -0.97c1.3,-0.18 1.95,-0.79 1.95,-1.84 0,-0.83 -0.35,-1.52 -1.05,-2.08 -0.7,-0.56 -1.67,-0.84 -2.9,-0.84 -1.37,0 -2.46,0.39 -3.27,1.16 -0.81,0.78 -1.25,1.7 -1.33,2.79l-7.14 -1.46c0.18,-2.24 1.29,-4.28 3.33,-6.14 2.04,-1.86 4.86,-2.79 8.47,-2.79 4.08,0 7.08,0.97 9.01,2.92 1.93,1.95 2.89,4.44 2.89,7.47l0 13.15c0,1.69 0.11,3.08 0.32,4.17l-7.41 0c-0.18,-0.72 -0.27,-1.73 -0.27,-3.03 -1.55,2.52 -4.08,3.79 -7.57,3.79 -2.85,0 -5.11,-0.8 -6.79,-2.41 -1.68,-1.61 -2.52,-3.53 -2.52,-5.76zm11.31 2.22c1.41,0 2.58,-0.42 3.52,-1.24 0.94,-0.83 1.41,-2.2 1.41,-4.11l0 -1.19 -5.09 0.81c-2.02,0.32 -3.03,1.32 -3.03,2.98 0,0.76 0.26,1.41 0.78,1.95 0.52,0.54 1.33,0.81 2.41,0.81z"/>
     <path class="fil1" d="M535.63 236.48l6.98 -1.24c0.07,1.01 0.46,1.87 1.16,2.57 0.7,0.7 1.72,1.05 3.06,1.05 1.01,0 1.79,-0.22 2.33,-0.68 0.54,-0.45 0.81,-1 0.81,-1.65 0,-1.08 -0.88,-1.82 -2.65,-2.22l-3.08 -0.7c-2.74,-0.58 -4.76,-1.6 -6.06,-3.06 -1.3,-1.46 -1.95,-3.2 -1.95,-5.22 0,-2.49 0.98,-4.6 2.95,-6.33 1.97,-1.73 4.43,-2.6 7.39,-2.6 3.5,0 6.12,0.84 7.87,2.52 1.75,1.68 2.71,3.51 2.89,5.49l-6.82 1.24c-0.11,-0.97 -0.48,-1.77 -1.11,-2.38 -0.63,-0.61 -1.54,-0.92 -2.73,-0.92 -0.79,0 -1.48,0.22 -2.06,0.65 -0.58,0.43 -0.86,0.99 -0.86,1.68 0,1.08 0.7,1.75 2.11,2l3.57 0.7c2.71,0.54 4.76,1.57 6.17,3.09 1.41,1.51 2.11,3.3 2.11,5.36 0,2.49 -0.94,4.63 -2.81,6.41 -1.88,1.79 -4.51,2.68 -7.9,2.68 -1.99,0 -3.74,-0.29 -5.28,-0.86 -1.53,-0.58 -2.71,-1.33 -3.52,-2.25 -0.81,-0.92 -1.42,-1.83 -1.84,-2.73 -0.41,-0.9 -0.66,-1.77 -0.73,-2.6zm37.28 -27.11l0 7.85 5.25 0 0 7.2 -5.25 0 0 10.06c0,1.88 0.99,2.81 2.98,2.81 0.65,0 1.37,-0.09 2.16,-0.27l0 6.82c-1.01,0.5 -2.43,0.76 -4.27,0.76 -2.78,0 -4.97,-0.78 -6.57,-2.33 -1.61,-1.55 -2.41,-3.66 -2.41,-6.33l0 -11.52 -4.76 0 0 -7.2 1.35 0c1.37,0 2.41,-0.41 3.11,-1.22 0.7,-0.81 1.05,-1.87 1.05,-3.17l0 -3.46 7.36 0zm28.68 34.74c-0.14,-0.65 -0.22,-1.55 -0.22,-2.71 -0.65,1.08 -1.64,1.9 -2.98,2.46 -1.33,0.56 -2.74,0.84 -4.22,0.84 -3.17,0 -5.67,-1 -7.49,-3 -1.82,-2 -2.73,-4.5 -2.73,-7.49l0 -16.99 8.22 0 0 15.26c0,1.37 0.37,2.49 1.11,3.35 0.74,0.87 1.81,1.3 3.22,1.3 1.37,0 2.46,-0.42 3.27,-1.27 0.81,-0.85 1.22,-1.96 1.22,-3.33l0 -15.31 8.22 0 0 22.08c0,1.77 0.09,3.37 0.27,4.82l-7.9 0zm41.28 -39.17l0 34.36c0,1.62 0.07,3.23 0.22,4.82l-7.9 0c-0.14,-0.87 -0.22,-1.73 -0.22,-2.6 -0.65,0.94 -1.61,1.7 -2.9,2.3 -1.28,0.6 -2.71,0.89 -4.3,0.89 -3.82,0 -7,-1.32 -9.52,-3.98 -2.53,-2.65 -3.79,-6.03 -3.79,-10.14 0,-4.04 1.23,-7.39 3.68,-10.04 2.45,-2.65 5.57,-3.98 9.36,-3.98 3.68,0 6.1,0.92 7.25,2.76l0 -14.39 8.12 0zm-18.37 20.78c-1.17,1.15 -1.76,2.8 -1.76,4.92 0,2.13 0.59,3.78 1.76,4.95 1.17,1.17 2.61,1.76 4.3,1.76 1.7,0 3.13,-0.59 4.3,-1.76 1.17,-1.17 1.76,-2.82 1.76,-4.95 0,-2.13 -0.59,-3.77 -1.76,-4.92 -1.17,-1.15 -2.61,-1.73 -4.3,-1.73 -1.69,0 -3.13,0.58 -4.3,1.73zm34.01 18.4l-8.22 0 0 -26.89 8.22 0 0 26.89zm-7.52 -31.71c-0.94,-0.94 -1.41,-2.07 -1.41,-3.41 0,-1.34 0.47,-2.47 1.41,-3.41 0.94,-0.94 2.06,-1.41 3.35,-1.41 1.34,0 2.48,0.47 3.44,1.41 0.96,0.94 1.43,2.07 1.43,3.41 0,1.33 -0.48,2.47 -1.43,3.41 -0.96,0.94 -2.1,1.41 -3.44,1.41 -1.3,0 -2.42,-0.47 -3.35,-1.41zm27.05 24.94c1.69,0 3.13,-0.58 4.3,-1.73 1.17,-1.15 1.76,-2.81 1.76,-4.98 0,-2.16 -0.59,-3.81 -1.76,-4.95 -1.17,-1.14 -2.61,-1.7 -4.3,-1.7 -1.66,0 -3.09,0.58 -4.27,1.73 -1.19,1.15 -1.79,2.8 -1.79,4.92 0,2.13 0.59,3.78 1.79,4.95 1.19,1.17 2.61,1.76 4.27,1.76zm0 -20.94c4.08,0 7.48,1.33 10.2,4 2.72,2.67 4.08,6.08 4.08,10.23 0,4.15 -1.36,7.57 -4.08,10.25 -2.72,2.69 -6.12,4.03 -10.2,4.03 -4.04,0 -7.43,-1.35 -10.17,-4.06 -2.74,-2.71 -4.11,-6.11 -4.11,-10.23 0,-4.11 1.37,-7.51 4.11,-10.2 2.74,-2.69 6.13,-4.03 10.17,-4.03z"/>
    </g>
   </g>
   <g>
    <path class="fil1" d="M118.18 151.55l-10.68 -30.14 -57.36 0 -10.68 30.14 -34.75 0 55.89 -148.41 38.31 0 55.26 148.41 -36 0zm-38.93 -111.57l-18.21 51.29 36 0 -17.79 -51.29zm122.88 111.57l-31.82 0 0 -151.55 31.82 0 0 151.55zm52.12 -64.47l41.66 0c-0.28,-4.75 -2.13,-8.86 -5.55,-12.35 -3.42,-3.49 -8.55,-5.23 -15.39,-5.23 -6.14,0 -11.03,1.81 -14.65,5.44 -3.63,3.63 -5.65,7.67 -6.07,12.14zm43.96 27l26.59 7.54c-2.65,9.63 -8.16,17.55 -16.54,23.76 -8.37,6.21 -18.84,9.31 -31.4,9.31 -15.07,0 -27.88,-5.02 -38.41,-15.07 -10.54,-10.05 -15.8,-23.51 -15.8,-40.4 0,-16.19 5.13,-29.38 15.39,-39.56 10.26,-10.19 22.43,-15.28 36.53,-15.28 16.19,0 28.92,4.71 38.2,14.13 9.28,9.42 13.92,22.5 13.92,39.25 0,5.3 -0.21,8.58 -0.63,9.84l-72.43 0c0.28,5.72 2.72,10.5 7.33,14.34 4.61,3.84 10.05,5.76 16.33,5.76 10.74,0 17.72,-4.54 20.93,-13.61zm35.8 37.47l35.79 -51.91 -36.42 -52.12 37.47 0 18.63 28.47 18.21 -28.47 35.59 0 -36 50.87c23.31,33.21 35.73,50.94 37.26,53.17l-37.26 0 -19.26 -29.31c-2.09,3.21 -5.44,8.37 -10.05,15.49 -4.6,7.12 -7.6,11.72 -9,13.82l-34.96 0z"/>
    <path class="fil1" d="M45.96 261.1c-12.99,0 -23.9,-4.27 -32.72,-12.8 -8.83,-8.53 -13.24,-19.59 -13.24,-33.16 0,-13.49 4.45,-24.58 13.36,-33.29 8.91,-8.7 19.69,-13.05 32.35,-13.05 6.33,0 12.05,0.94 17.17,2.81 5.12,1.87 9.26,4.35 12.43,7.43 3.16,3.08 5.7,6.25 7.62,9.49 1.92,3.25 3.25,6.62 4,10.12l-18.61 5.87c-0.42,-1.75 -1.08,-3.48 -2,-5.18 -0.91,-1.71 -2.21,-3.46 -3.87,-5.25 -1.66,-1.79 -3.96,-3.25 -6.87,-4.37 -2.91,-1.12 -6.2,-1.69 -9.87,-1.69 -6.66,0 -12.53,2.35 -17.61,7.06 -5.08,4.7 -7.62,11.39 -7.62,20.05 0,7.99 2.5,14.36 7.49,19.11 5,4.75 10.99,7.12 17.99,7.12 6.83,0 12.11,-1.71 15.86,-5.12 3.75,-3.41 6.2,-7.24 7.37,-11.49l18.86 5.37c-0.83,3.41 -2.18,6.79 -4.06,10.12 -1.87,3.33 -4.41,6.62 -7.62,9.87 -3.2,3.25 -7.45,5.89 -12.74,7.93 -5.29,2.04 -11.18,3.06 -17.67,3.06zm72.06 -38.34l0 36.47 -18.98 0 0 -90.42 18.98 0 0 32.35c3.75,-3.75 9.03,-5.62 15.86,-5.62 7.74,0 13.59,2.31 17.55,6.93 3.95,4.62 5.93,10.55 5.93,17.8l0 38.97 -18.98 0 0 -35.72c0,-3.25 -0.85,-5.85 -2.56,-7.81 -1.71,-1.96 -4.23,-2.94 -7.56,-2.94 -2.91,0 -5.31,0.94 -7.18,2.81 -1.87,1.87 -2.89,4.27 -3.06,7.18zm83.81 20.86c3.91,0 7.22,-1.33 9.93,-4 2.71,-2.66 4.06,-6.49 4.06,-11.49 0,-4.99 -1.35,-8.8 -4.06,-11.43 -2.71,-2.62 -6.02,-3.94 -9.93,-3.94 -3.83,0 -7.12,1.33 -9.87,4 -2.75,2.66 -4.12,6.45 -4.12,11.37 0,4.91 1.37,8.72 4.12,11.43 2.75,2.71 6.04,4.06 9.87,4.06zm0 -48.34c9.41,0 17.26,3.08 23.54,9.24 6.29,6.16 9.43,14.03 9.43,23.61 0,9.58 -3.14,17.47 -9.43,23.67 -6.29,6.2 -14.13,9.31 -23.54,9.31 -9.33,0 -17.15,-3.12 -23.48,-9.37 -6.33,-6.24 -9.49,-14.11 -9.49,-23.61 0,-9.49 3.17,-17.34 9.49,-23.54 6.33,-6.2 14.16,-9.31 23.48,-9.31zm64.2 63.95l-18.98 0 0 -90.42 18.98 0 0 90.42zm35.72 0l-18.98 0 0 -62.07 18.98 0 0 62.07zm-17.36 -73.19c-2.16,-2.17 -3.25,-4.79 -3.25,-7.87 0,-3.08 1.08,-5.7 3.25,-7.87 2.17,-2.17 4.75,-3.25 7.74,-3.25 3.08,0 5.72,1.08 7.93,3.25 2.21,2.16 3.31,4.79 3.31,7.87 0,3.08 -1.1,5.7 -3.31,7.87 -2.21,2.16 -4.85,3.25 -7.93,3.25 -3,0 -5.58,-1.08 -7.74,-3.25zm62.57 26.73c-4.08,0 -7.47,1.37 -10.18,4.12 -2.71,2.75 -4.06,6.54 -4.06,11.37 0,4.75 1.4,8.49 4.18,11.24 2.79,2.75 6.22,4.12 10.3,4.12 3.41,0 6.22,-0.9 8.43,-2.68 2.21,-1.79 3.68,-3.98 4.43,-6.56l16.74 5.12c-1.5,5.91 -4.85,10.99 -10.05,15.24 -5.2,4.25 -11.72,6.37 -19.55,6.37 -9.33,0 -17.22,-3.1 -23.67,-9.31 -6.45,-6.2 -9.68,-14.05 -9.68,-23.54 0,-9.58 3.14,-17.47 9.43,-23.67 6.29,-6.2 14.05,-9.31 23.29,-9.31 8.08,0 14.7,2.08 19.86,6.25 5.16,4.16 8.49,9.28 9.99,15.36l-16.98 5.12c-0.75,-2.66 -2.17,-4.87 -4.25,-6.62 -2.08,-1.75 -4.83,-2.62 -8.24,-2.62zm69.32 30.85c3.91,0 7.22,-1.33 9.93,-4 2.71,-2.66 4.06,-6.49 4.06,-11.49 0,-4.99 -1.35,-8.8 -4.06,-11.43 -2.71,-2.62 -6.02,-3.94 -9.93,-3.94 -3.83,0 -7.12,1.33 -9.87,4 -2.75,2.66 -4.12,6.45 -4.12,11.37 0,4.91 1.37,8.72 4.12,11.43 2.75,2.71 6.04,4.06 9.87,4.06zm0 -48.34c9.41,0 17.26,3.08 23.54,9.24 6.29,6.16 9.43,14.03 9.43,23.61 0,9.58 -3.14,17.47 -9.43,23.67 -6.29,6.2 -14.13,9.31 -23.54,9.31 -9.33,0 -17.15,-3.12 -23.48,-9.37 -6.33,-6.24 -9.49,-14.11 -9.49,-23.61 0,-9.49 3.17,-17.34 9.49,-23.54 6.33,-6.2 14.16,-9.31 23.48,-9.31z"/>
   </g>
  </g>
  <path class="fil1" d="M38.05 331.32l-7.34 0 0 -22.27 -8.76 22.27 -6.06 0 -8.77 -21.98 0 21.98 -7.11 0 0 -33.59 9.76 0 9.24 22.69 8.77 -22.69 10.28 0 0 33.59zm14.02 0l-7.2 0 0 -23.55 7.2 0 0 23.55zm-6.59 -27.76c-0.82,-0.82 -1.23,-1.82 -1.23,-2.98 0,-1.17 0.41,-2.16 1.23,-2.98 0.82,-0.82 1.8,-1.23 2.94,-1.23 1.17,0 2.17,0.41 3.01,1.23 0.84,0.82 1.26,1.82 1.26,2.98 0,1.17 -0.42,2.16 -1.26,2.98 -0.84,0.82 -1.84,1.23 -3.01,1.23 -1.14,0 -2.12,-0.41 -2.94,-1.23zm11.23 29.09l6.35 -1.8c0.25,1.17 0.83,2.12 1.73,2.84 0.9,0.72 2.01,1.09 3.34,1.09 3.89,0 5.83,-2.01 5.83,-6.02l0 -1.09c-1.17,1.77 -3.27,2.65 -6.3,2.65 -3.13,0 -5.73,-1.09 -7.82,-3.27 -2.09,-2.18 -3.13,-4.91 -3.13,-8.2 0,-3.16 1.03,-5.87 3.1,-8.13 2.07,-2.26 4.68,-3.39 7.84,-3.39 1.74,0 3.16,0.3 4.26,0.9 1.11,0.6 1.86,1.28 2.28,2.04l0 -2.51 6.87 0 0 20.61c0,3.66 -1.06,6.69 -3.17,9.07 -2.12,2.38 -5.26,3.58 -9.43,3.58 -3.22,0 -5.9,-0.83 -8.03,-2.49 -2.13,-1.66 -3.37,-3.62 -3.72,-5.9zm8.62 -10c0.95,0.95 2.16,1.42 3.65,1.42 1.48,0 2.69,-0.47 3.62,-1.42 0.93,-0.95 1.4,-2.21 1.4,-3.79 0,-1.55 -0.49,-2.8 -1.47,-3.77 -0.98,-0.96 -2.16,-1.45 -3.55,-1.45 -1.39,0 -2.58,0.48 -3.58,1.45 -0.99,0.96 -1.49,2.22 -1.49,3.77 0,1.58 0.47,2.84 1.42,3.79zm36.76 8.67c-0.13,-0.57 -0.19,-1.36 -0.19,-2.37 -0.57,0.95 -1.44,1.67 -2.6,2.16 -1.17,0.49 -2.4,0.73 -3.7,0.73 -2.78,0 -4.97,-0.88 -6.56,-2.63 -1.59,-1.75 -2.39,-3.94 -2.39,-6.56l0 -14.88 7.2 0 0 13.36c0,1.2 0.32,2.18 0.97,2.94 0.65,0.76 1.59,1.14 2.82,1.14 1.2,0 2.16,-0.37 2.87,-1.11 0.71,-0.74 1.07,-1.71 1.07,-2.91l0 -13.41 7.2 0 0 19.33c0,1.55 0.08,2.95 0.24,4.22l-6.92 0zm18.43 -14.59l9.43 0c-0.06,-1.07 -0.48,-2.01 -1.26,-2.79 -0.77,-0.79 -1.93,-1.18 -3.48,-1.18 -1.39,0 -2.5,0.41 -3.32,1.23 -0.82,0.82 -1.28,1.74 -1.37,2.75zm9.95 6.11l6.02 1.71c-0.6,2.18 -1.85,3.97 -3.74,5.38 -1.9,1.41 -4.26,2.11 -7.11,2.11 -3.41,0 -6.31,-1.14 -8.69,-3.41 -2.38,-2.27 -3.58,-5.32 -3.58,-9.14 0,-3.66 1.16,-6.65 3.48,-8.95 2.32,-2.31 5.08,-3.46 8.27,-3.46 3.66,0 6.55,1.07 8.65,3.2 2.1,2.13 3.15,5.09 3.15,8.88 0,1.2 -0.05,1.94 -0.14,2.23l-16.39 0c0.06,1.29 0.62,2.38 1.66,3.25 1.04,0.87 2.27,1.3 3.7,1.3 2.43,0 4.01,-1.03 4.74,-3.08zm18.29 8.48l-7.2 0 0 -34.3 7.2 0 0 34.3zm40.98 0l-2.41 -6.82 -12.98 0 -2.41 6.82 -7.86 0 12.65 -33.59 8.67 0 12.51 33.59 -8.15 0zm-8.81 -25.25l-4.12 11.61 8.15 0 -4.03 -11.61zm27.81 25.25l-7.2 0 0 -34.3 7.2 0 0 34.3zm11.8 -14.59l9.43 0c-0.06,-1.07 -0.48,-2.01 -1.26,-2.79 -0.77,-0.79 -1.93,-1.18 -3.48,-1.18 -1.39,0 -2.5,0.41 -3.32,1.23 -0.82,0.82 -1.28,1.74 -1.37,2.75zm9.95 6.11l6.02 1.71c-0.6,2.18 -1.85,3.97 -3.74,5.38 -1.9,1.41 -4.26,2.11 -7.11,2.11 -3.41,0 -6.31,-1.14 -8.69,-3.41 -2.38,-2.27 -3.58,-5.32 -3.58,-9.14 0,-3.66 1.16,-6.65 3.48,-8.95 2.32,-2.31 5.08,-3.46 8.27,-3.46 3.66,0 6.55,1.07 8.65,3.2 2.1,2.13 3.15,5.09 3.15,8.88 0,1.2 -0.05,1.94 -0.14,2.23l-16.39 0c0.06,1.29 0.62,2.38 1.66,3.25 1.04,0.87 2.27,1.3 3.7,1.3 2.43,0 4.01,-1.03 4.74,-3.08zm11.09 9.43l0 -24.49 7.2 0 0 25.25c0,2.4 -0.7,4.33 -2.11,5.8 -1.4,1.47 -3.29,2.2 -5.66,2.2 -1.61,0 -2.94,-0.22 -3.98,-0.66l0 -5.97c0.66,0.19 1.37,0.29 2.13,0.29 1.61,0 2.42,-0.81 2.42,-2.42zm0.62 -28.71c-0.82,-0.82 -1.23,-1.82 -1.23,-2.98 0,-1.17 0.41,-2.16 1.23,-2.98 0.82,-0.82 1.8,-1.23 2.94,-1.23 1.2,0 2.21,0.41 3.03,1.23 0.82,0.82 1.23,1.82 1.23,2.98 0,1.17 -0.42,2.16 -1.26,2.98 -0.84,0.82 -1.84,1.23 -3.01,1.23 -1.14,0 -2.12,-0.41 -2.94,-1.23zm11.51 21.27c0,-1.99 0.65,-3.59 1.94,-4.81 1.29,-1.21 2.97,-1.98 5.02,-2.3l5.54 -0.85c1.14,-0.16 1.71,-0.7 1.71,-1.61 0,-0.73 -0.31,-1.33 -0.92,-1.82 -0.62,-0.49 -1.46,-0.73 -2.54,-0.73 -1.2,0 -2.15,0.34 -2.87,1.02 -0.71,0.68 -1.1,1.49 -1.16,2.44l-6.25 -1.28c0.16,-1.96 1.13,-3.75 2.91,-5.38 1.78,-1.63 4.26,-2.44 7.41,-2.44 3.57,0 6.2,0.85 7.89,2.56 1.69,1.7 2.54,3.88 2.54,6.54l0 11.51c0,1.48 0.09,2.7 0.28,3.65l-6.49 0c-0.16,-0.63 -0.24,-1.52 -0.24,-2.65 -1.36,2.21 -3.57,3.32 -6.63,3.32 -2.5,0 -4.48,-0.7 -5.95,-2.11 -1.47,-1.4 -2.2,-3.09 -2.2,-5.04zm9.9 1.94c1.23,0 2.26,-0.36 3.08,-1.09 0.82,-0.73 1.23,-1.93 1.23,-3.6l0 -1.04 -4.45 0.71c-1.77,0.29 -2.65,1.15 -2.65,2.61 0,0.66 0.23,1.23 0.69,1.71 0.46,0.47 1.16,0.71 2.11,0.71zm24.59 -8.95l0 13.5 -7.2 0 0 -23.55 6.96 0 0 2.7c0.6,-1.04 1.52,-1.86 2.77,-2.44 1.25,-0.58 2.52,-0.88 3.81,-0.88 2.81,0 4.94,0.88 6.4,2.63 1.45,1.75 2.18,4 2.18,6.75l0 14.78 -7.2 0 0 -13.55c0,-1.23 -0.32,-2.22 -0.97,-2.96 -0.65,-0.74 -1.6,-1.11 -2.87,-1.11 -1.17,0 -2.11,0.39 -2.82,1.16 -0.71,0.77 -1.07,1.76 -1.07,2.96zm44.15 -20.8l0 30.08c0,1.42 0.06,2.83 0.19,4.22l-6.92 0c-0.13,-0.76 -0.19,-1.52 -0.19,-2.27 -0.57,0.82 -1.41,1.49 -2.53,2.01 -1.12,0.52 -2.38,0.78 -3.77,0.78 -3.35,0 -6.13,-1.16 -8.34,-3.48 -2.21,-2.32 -3.32,-5.28 -3.32,-8.88 0,-3.54 1.07,-6.47 3.22,-8.79 2.15,-2.32 4.88,-3.48 8.2,-3.48 3.22,0 5.34,0.8 6.35,2.42l0 -12.6 7.11 0zm-16.08 18.19c-1.03,1.01 -1.54,2.45 -1.54,4.31 0,1.86 0.51,3.31 1.54,4.34 1.03,1.03 2.28,1.54 3.77,1.54 1.48,0 2.74,-0.51 3.77,-1.54 1.03,-1.03 1.54,-2.47 1.54,-4.34 0,-1.86 -0.51,-3.3 -1.54,-4.31 -1.03,-1.01 -2.28,-1.52 -3.77,-1.52 -1.48,0 -2.74,0.51 -3.77,1.52zm37.55 -7.44l0 7.11c-0.66,-0.16 -1.42,-0.24 -2.27,-0.24 -1.61,0 -2.93,0.52 -3.96,1.56 -1.03,1.04 -1.54,2.65 -1.54,4.83l0 10.28 -7.2 0 0 -23.55 6.96 0 0 3.17c0.57,-1.2 1.44,-2.07 2.6,-2.61 1.17,-0.54 2.34,-0.8 3.51,-0.8 0.72,0 1.36,0.08 1.89,0.24zm14.88 17.62c1.48,0 2.74,-0.51 3.77,-1.52 1.03,-1.01 1.54,-2.46 1.54,-4.36 0,-1.89 -0.51,-3.34 -1.54,-4.33 -1.03,-0.99 -2.28,-1.49 -3.77,-1.49 -1.45,0 -2.7,0.51 -3.74,1.52 -1.04,1.01 -1.56,2.45 -1.56,4.31 0,1.86 0.52,3.31 1.56,4.34 1.04,1.03 2.29,1.54 3.74,1.54zm0 -18.33c3.57,0 6.55,1.17 8.93,3.51 2.39,2.34 3.58,5.32 3.58,8.95 0,3.63 -1.19,6.63 -3.58,8.98 -2.38,2.35 -5.36,3.53 -8.93,3.53 -3.54,0 -6.51,-1.18 -8.91,-3.55 -2.4,-2.37 -3.6,-5.35 -3.6,-8.96 0,-3.6 1.2,-6.58 3.6,-8.93 2.4,-2.35 5.37,-3.53 8.91,-3.53zm60.31 24.26l-6.06 0 -0.47 -3.41c-0.82,1.17 -2.04,2.15 -3.65,2.94 -1.61,0.79 -3.54,1.18 -5.78,1.18 -4.8,0 -8.83,-1.62 -12.1,-4.86 -3.27,-3.24 -4.9,-7.45 -4.9,-12.63 0,-5.15 1.7,-9.36 5.09,-12.63 3.4,-3.27 7.53,-4.9 12.39,-4.9 4.36,0 7.82,1.03 10.38,3.08 2.56,2.05 4.28,4.48 5.16,7.3l-7.2 2.51c-0.35,-1.42 -1.21,-2.76 -2.58,-4 -1.37,-1.25 -3.29,-1.87 -5.76,-1.87 -2.59,0 -4.89,0.89 -6.89,2.68 -2.01,1.78 -3.01,4.4 -3.01,7.84 0,3.35 0.96,5.96 2.89,7.84 1.93,1.88 4.33,2.82 7.2,2.82 2.46,0 4.39,-0.59 5.78,-1.78 1.39,-1.18 2.23,-2.42 2.51,-3.72l-10.09 0 0 -6.35 17.1 0 0 17.95zm4.41 -6.49c0,-1.99 0.65,-3.59 1.94,-4.81 1.29,-1.21 2.97,-1.98 5.02,-2.3l5.54 -0.85c1.14,-0.16 1.71,-0.7 1.71,-1.61 0,-0.73 -0.31,-1.33 -0.92,-1.82 -0.62,-0.49 -1.46,-0.73 -2.54,-0.73 -1.2,0 -2.15,0.34 -2.87,1.02 -0.71,0.68 -1.1,1.49 -1.16,2.44l-6.25 -1.28c0.16,-1.96 1.13,-3.75 2.91,-5.38 1.78,-1.63 4.26,-2.44 7.41,-2.44 3.57,0 6.2,0.85 7.89,2.56 1.69,1.7 2.54,3.88 2.54,6.54l0 11.51c0,1.48 0.09,2.7 0.28,3.65l-6.49 0c-0.16,-0.63 -0.24,-1.52 -0.24,-2.65 -1.36,2.21 -3.57,3.32 -6.63,3.32 -2.5,0 -4.48,-0.7 -5.95,-2.11 -1.47,-1.4 -2.2,-3.09 -2.2,-5.04zm9.9 1.94c1.23,0 2.26,-0.36 3.08,-1.09 0.82,-0.73 1.23,-1.93 1.23,-3.6l0 -1.04 -4.45 0.71c-1.77,0.29 -2.65,1.15 -2.65,2.61 0,0.66 0.23,1.23 0.69,1.71 0.46,0.47 1.16,0.71 2.11,0.71zm32.36 -19l0 7.11c-0.66,-0.16 -1.42,-0.24 -2.27,-0.24 -1.61,0 -2.93,0.52 -3.96,1.56 -1.03,1.04 -1.54,2.65 -1.54,4.83l0 10.28 -7.2 0 0 -23.55 6.96 0 0 3.17c0.57,-1.2 1.44,-2.07 2.6,-2.61 1.17,-0.54 2.34,-0.8 3.51,-0.8 0.72,0 1.36,0.08 1.89,0.24zm14.92 5.92c-1.55,0 -2.84,0.52 -3.86,1.56 -1.03,1.04 -1.54,2.48 -1.54,4.31 0,1.8 0.53,3.22 1.59,4.26 1.06,1.04 2.36,1.56 3.91,1.56 1.29,0 2.36,-0.34 3.2,-1.02 0.84,-0.68 1.4,-1.51 1.68,-2.49l6.35 1.94c-0.57,2.24 -1.84,4.17 -3.81,5.78 -1.97,1.61 -4.45,2.42 -7.41,2.42 -3.54,0 -6.53,-1.18 -8.98,-3.53 -2.45,-2.35 -3.67,-5.33 -3.67,-8.93 0,-3.63 1.19,-6.63 3.58,-8.98 2.39,-2.35 5.33,-3.53 8.84,-3.53 3.06,0 5.57,0.79 7.53,2.37 1.96,1.58 3.22,3.52 3.79,5.83l-6.44 1.94c-0.29,-1.01 -0.82,-1.85 -1.61,-2.51 -0.79,-0.66 -1.83,-0.99 -3.13,-0.99zm22.93 17.62l-7.2 0 0 -23.55 7.2 0 0 23.55zm-6.59 -27.76c-0.82,-0.82 -1.23,-1.82 -1.23,-2.98 0,-1.17 0.41,-2.16 1.23,-2.98 0.82,-0.82 1.8,-1.23 2.94,-1.23 1.17,0 2.17,0.41 3.01,1.23 0.84,0.82 1.26,1.82 1.26,2.98 0,1.17 -0.42,2.16 -1.26,2.98 -0.84,0.82 -1.84,1.23 -3.01,1.23 -1.14,0 -2.12,-0.41 -2.94,-1.23zm11.46 21.27c0,-1.99 0.65,-3.59 1.94,-4.81 1.29,-1.21 2.97,-1.98 5.02,-2.3l5.54 -0.85c1.14,-0.16 1.71,-0.7 1.71,-1.61 0,-0.73 -0.31,-1.33 -0.92,-1.82 -0.62,-0.49 -1.46,-0.73 -2.54,-0.73 -1.2,0 -2.15,0.34 -2.87,1.02 -0.71,0.68 -1.1,1.49 -1.16,2.44l-6.25 -1.28c0.16,-1.96 1.13,-3.75 2.91,-5.38 1.78,-1.63 4.26,-2.44 7.41,-2.44 3.57,0 6.2,0.85 7.89,2.56 1.69,1.7 2.54,3.88 2.54,6.54l0 11.51c0,1.48 0.09,2.7 0.28,3.65l-6.49 0c-0.16,-0.63 -0.24,-1.52 -0.24,-2.65 -1.36,2.21 -3.57,3.32 -6.63,3.32 -2.5,0 -4.48,-0.7 -5.95,-2.11 -1.47,-1.4 -2.2,-3.09 -2.2,-5.04zm9.9 1.94c1.23,0 2.26,-0.36 3.08,-1.09 0.82,-0.73 1.23,-1.93 1.23,-3.6l0 -1.04 -4.45 0.71c-1.77,0.29 -2.65,1.15 -2.65,2.61 0,0.66 0.23,1.23 0.69,1.71 0.46,0.47 1.16,0.71 2.11,0.71zm45.01 5.26c-4.93,0 -9.06,-1.62 -12.41,-4.86 -3.35,-3.24 -5.02,-7.43 -5.02,-12.58 0,-5.12 1.69,-9.33 5.07,-12.63 3.38,-3.3 7.47,-4.95 12.27,-4.95 2.4,0 4.57,0.35 6.51,1.07 1.94,0.71 3.51,1.65 4.71,2.82 1.2,1.17 2.16,2.37 2.89,3.6 0.73,1.23 1.23,2.51 1.52,3.84l-7.06 2.23c-0.16,-0.66 -0.41,-1.32 -0.76,-1.97 -0.35,-0.65 -0.84,-1.31 -1.47,-1.99 -0.63,-0.68 -1.5,-1.23 -2.6,-1.66 -1.11,-0.43 -2.35,-0.64 -3.74,-0.64 -2.53,0 -4.75,0.89 -6.68,2.68 -1.93,1.78 -2.89,4.32 -2.89,7.6 0,3.03 0.95,5.45 2.84,7.25 1.89,1.8 4.17,2.7 6.82,2.7 2.59,0 4.6,-0.65 6.02,-1.94 1.42,-1.29 2.35,-2.75 2.8,-4.36l7.15 2.04c-0.32,1.3 -0.83,2.58 -1.54,3.84 -0.71,1.26 -1.67,2.51 -2.89,3.74 -1.22,1.23 -2.83,2.23 -4.83,3.01 -2.01,0.77 -4.24,1.16 -6.7,1.16zm27.34 -14.54l0 13.83 -7.2 0 0 -34.3 7.2 0 0 12.27c1.42,-1.42 3.43,-2.13 6.02,-2.13 2.94,0 5.16,0.88 6.66,2.63 1.5,1.75 2.25,4 2.25,6.75l0 14.78 -7.2 0 0 -13.55c0,-1.23 -0.32,-2.22 -0.97,-2.96 -0.65,-0.74 -1.6,-1.11 -2.87,-1.11 -1.1,0 -2.01,0.35 -2.72,1.07 -0.71,0.71 -1.1,1.62 -1.16,2.72zm31.79 7.91c1.48,0 2.74,-0.51 3.77,-1.52 1.03,-1.01 1.54,-2.46 1.54,-4.36 0,-1.89 -0.51,-3.34 -1.54,-4.33 -1.03,-0.99 -2.28,-1.49 -3.77,-1.49 -1.45,0 -2.7,0.51 -3.74,1.52 -1.04,1.01 -1.56,2.45 -1.56,4.31 0,1.86 0.52,3.31 1.56,4.34 1.04,1.03 2.29,1.54 3.74,1.54zm0 -18.33c3.57,0 6.55,1.17 8.93,3.51 2.39,2.34 3.58,5.32 3.58,8.95 0,3.63 -1.19,6.63 -3.58,8.98 -2.38,2.35 -5.36,3.53 -8.93,3.53 -3.54,0 -6.51,-1.18 -8.91,-3.55 -2.4,-2.37 -3.6,-5.35 -3.6,-8.96 0,-3.6 1.2,-6.58 3.6,-8.93 2.4,-2.35 5.37,-3.53 8.91,-3.53zm24.35 24.26l-7.2 0 0 -34.3 7.2 0 0 34.3zm13.55 0l-7.2 0 0 -23.55 7.2 0 0 23.55zm-6.59 -27.76c-0.82,-0.82 -1.23,-1.82 -1.23,-2.98 0,-1.17 0.41,-2.16 1.23,-2.98 0.82,-0.82 1.8,-1.23 2.94,-1.23 1.17,0 2.17,0.41 3.01,1.23 0.84,0.82 1.26,1.82 1.26,2.98 0,1.17 -0.42,2.16 -1.26,2.98 -0.84,0.82 -1.84,1.23 -3.01,1.23 -1.14,0 -2.12,-0.41 -2.94,-1.23zm23.74 10.14c-1.55,0 -2.84,0.52 -3.86,1.56 -1.03,1.04 -1.54,2.48 -1.54,4.31 0,1.8 0.53,3.22 1.59,4.26 1.06,1.04 2.36,1.56 3.91,1.56 1.29,0 2.36,-0.34 3.2,-1.02 0.84,-0.68 1.4,-1.51 1.68,-2.49l6.35 1.94c-0.57,2.24 -1.84,4.17 -3.81,5.78 -1.97,1.61 -4.45,2.42 -7.41,2.42 -3.54,0 -6.53,-1.18 -8.98,-3.53 -2.45,-2.35 -3.67,-5.33 -3.67,-8.93 0,-3.63 1.19,-6.63 3.58,-8.98 2.39,-2.35 5.33,-3.53 8.84,-3.53 3.06,0 5.57,0.79 7.53,2.37 1.96,1.58 3.22,3.52 3.79,5.83l-6.44 1.94c-0.29,-1.01 -0.82,-1.85 -1.61,-2.51 -0.79,-0.66 -1.83,-0.99 -3.13,-0.99zm26.29 11.7c1.48,0 2.74,-0.51 3.77,-1.52 1.03,-1.01 1.54,-2.46 1.54,-4.36 0,-1.89 -0.51,-3.34 -1.54,-4.33 -1.03,-0.99 -2.28,-1.49 -3.77,-1.49 -1.45,0 -2.7,0.51 -3.74,1.52 -1.04,1.01 -1.56,2.45 -1.56,4.31 0,1.86 0.52,3.31 1.56,4.34 1.04,1.03 2.29,1.54 3.74,1.54zm0 -18.33c3.57,0 6.55,1.17 8.93,3.51 2.39,2.34 3.58,5.32 3.58,8.95 0,3.63 -1.19,6.63 -3.58,8.98 -2.38,2.35 -5.36,3.53 -8.93,3.53 -3.54,0 -6.51,-1.18 -8.91,-3.55 -2.4,-2.37 -3.6,-5.35 -3.6,-8.96 0,-3.6 1.2,-6.58 3.6,-8.93 2.4,-2.35 5.37,-3.53 8.91,-3.53zm-465.99 84.19l-7.34 0 0 -22.27 -8.76 22.27 -6.06 0 -8.77 -21.98 0 21.98 -7.11 0 0 -33.59 9.76 0 9.24 22.69 8.77 -22.69 10.28 0 0 33.59zm5.35 -6.49c0,-1.99 0.65,-3.59 1.94,-4.81 1.29,-1.21 2.97,-1.98 5.02,-2.3l5.54 -0.85c1.14,-0.16 1.71,-0.7 1.71,-1.61 0,-0.73 -0.31,-1.33 -0.92,-1.82 -0.62,-0.49 -1.46,-0.73 -2.54,-0.73 -1.2,0 -2.15,0.34 -2.87,1.02 -0.71,0.68 -1.1,1.49 -1.16,2.44l-6.25 -1.28c0.16,-1.96 1.13,-3.75 2.91,-5.38 1.78,-1.63 4.26,-2.44 7.41,-2.44 3.57,0 6.2,0.85 7.89,2.56 1.69,1.7 2.54,3.88 2.54,6.54l0 11.51c0,1.48 0.09,2.7 0.28,3.65l-6.49 0c-0.16,-0.63 -0.24,-1.52 -0.24,-2.65 -1.36,2.21 -3.57,3.32 -6.63,3.32 -2.5,0 -4.48,-0.7 -5.95,-2.11 -1.47,-1.4 -2.2,-3.09 -2.2,-5.04zm9.9 1.94c1.23,0 2.26,-0.36 3.08,-1.09 0.82,-0.73 1.23,-1.93 1.23,-3.6l0 -1.04 -4.45 0.71c-1.77,0.29 -2.65,1.15 -2.65,2.61 0,0.66 0.23,1.23 0.69,1.71 0.46,0.47 1.16,0.71 2.11,0.71zm25.91 13.6l-7.58 0 5.35 -12.22 -9.9 -20.37 8.05 0 5.73 12.6 5.21 -12.6 7.63 0 -14.5 32.59zm27.76 -14.97c1.48,0 2.74,-0.51 3.77,-1.52 1.03,-1.01 1.54,-2.46 1.54,-4.36 0,-1.89 -0.51,-3.34 -1.54,-4.33 -1.03,-0.99 -2.28,-1.49 -3.77,-1.49 -1.45,0 -2.7,0.51 -3.74,1.52 -1.04,1.01 -1.56,2.45 -1.56,4.31 0,1.86 0.52,3.31 1.56,4.34 1.04,1.03 2.29,1.54 3.74,1.54zm0 -18.33c3.57,0 6.55,1.17 8.93,3.51 2.39,2.34 3.58,5.32 3.58,8.95 0,3.63 -1.19,6.63 -3.58,8.98 -2.38,2.35 -5.36,3.53 -8.93,3.53 -3.54,0 -6.51,-1.18 -8.91,-3.55 -2.4,-2.37 -3.6,-5.35 -3.6,-8.96 0,-3.6 1.2,-6.58 3.6,-8.93 2.4,-2.35 5.37,-3.53 8.91,-3.53zm51.97 -10.04l0 30.08c0,1.42 0.06,2.83 0.19,4.22l-6.92 0c-0.13,-0.76 -0.19,-1.52 -0.19,-2.27 -0.57,0.82 -1.41,1.49 -2.53,2.01 -1.12,0.52 -2.38,0.78 -3.77,0.78 -3.35,0 -6.13,-1.16 -8.34,-3.48 -2.21,-2.32 -3.32,-5.28 -3.32,-8.88 0,-3.54 1.07,-6.47 3.22,-8.79 2.15,-2.32 4.88,-3.48 8.2,-3.48 3.22,0 5.34,0.8 6.35,2.42l0 -12.6 7.11 0zm-16.08 18.19c-1.03,1.01 -1.54,2.45 -1.54,4.31 0,1.86 0.51,3.31 1.54,4.34 1.03,1.03 2.28,1.54 3.77,1.54 1.48,0 2.74,-0.51 3.77,-1.54 1.03,-1.03 1.54,-2.47 1.54,-4.34 0,-1.86 -0.51,-3.3 -1.54,-4.31 -1.03,-1.01 -2.28,-1.52 -3.77,-1.52 -1.48,0 -2.74,0.51 -3.77,1.52zm28.02 1.52l9.43 0c-0.06,-1.07 -0.48,-2.01 -1.26,-2.79 -0.77,-0.79 -1.93,-1.18 -3.48,-1.18 -1.39,0 -2.5,0.41 -3.32,1.23 -0.82,0.82 -1.28,1.74 -1.37,2.75zm9.95 6.11l6.02 1.71c-0.6,2.18 -1.85,3.97 -3.74,5.38 -1.9,1.41 -4.26,2.11 -7.11,2.11 -3.41,0 -6.31,-1.14 -8.69,-3.41 -2.38,-2.27 -3.58,-5.32 -3.58,-9.14 0,-3.66 1.16,-6.65 3.48,-8.95 2.32,-2.31 5.08,-3.46 8.27,-3.46 3.66,0 6.55,1.07 8.65,3.2 2.1,2.13 3.15,5.09 3.15,8.88 0,1.2 -0.05,1.94 -0.14,2.23l-16.39 0c0.06,1.29 0.62,2.38 1.66,3.25 1.04,0.87 2.27,1.3 3.7,1.3 2.43,0 4.01,-1.03 4.74,-3.08zm28.52 -9.95l-7.01 -0.05c-0.19,-0.51 -0.28,-1.36 -0.28,-2.56 0,-2.91 1.03,-5.37 3.1,-7.39 2.07,-2.02 4.87,-3.03 8.41,-3.03 3.44,0 6.21,0.97 8.29,2.91 2.08,1.94 3.13,4.33 3.13,7.18 0,3.98 -2.02,7.17 -6.06,9.57l-5.83 3.46c-1.04,0.66 -1.74,1.36 -2.08,2.09l14.21 0 0 6.25 -23.36 0c0,-3.03 0.54,-5.66 1.64,-7.89 1.09,-2.23 2.96,-4.11 5.61,-5.66l5.02 -2.94c1.23,-0.73 2.1,-1.45 2.61,-2.16 0.51,-0.71 0.76,-1.57 0.76,-2.58 0,-1.04 -0.35,-1.91 -1.07,-2.6 -0.71,-0.7 -1.73,-1.04 -3.06,-1.04 -1.39,0 -2.46,0.43 -3.2,1.28 -0.74,0.85 -1.11,1.94 -1.11,3.27 0,0.66 0.09,1.29 0.28,1.9zm27.53 -3.6c-0.76,1.61 -1.14,3.84 -1.14,6.68 0,2.84 0.38,5.07 1.14,6.68 0.95,1.9 2.45,2.84 4.5,2.84 2.05,0 3.55,-0.95 4.5,-2.84 0.79,-1.58 1.18,-3.81 1.18,-6.68 0,-2.87 -0.4,-5.1 -1.18,-6.68 -0.95,-1.89 -2.45,-2.84 -4.5,-2.84 -2.05,0 -3.55,0.95 -4.5,2.84zm-5.92 17.53c-1.8,-2.72 -2.7,-6.33 -2.7,-10.85 0,-4.52 0.9,-8.13 2.7,-10.85 2.31,-3.51 5.78,-5.26 10.42,-5.26 4.67,0 8.16,1.75 10.47,5.26 1.8,2.72 2.7,6.33 2.7,10.85 0,4.52 -0.9,8.13 -2.7,10.85 -2.37,3.51 -5.86,5.26 -10.47,5.26 -4.58,0 -8.05,-1.75 -10.42,-5.26zm34.02 -13.93l-7.01 -0.05c-0.19,-0.51 -0.28,-1.36 -0.28,-2.56 0,-2.91 1.03,-5.37 3.1,-7.39 2.07,-2.02 4.87,-3.03 8.41,-3.03 3.44,0 6.21,0.97 8.29,2.91 2.08,1.94 3.13,4.33 3.13,7.18 0,3.98 -2.02,7.17 -6.06,9.57l-5.83 3.46c-1.04,0.66 -1.74,1.36 -2.08,2.09l14.21 0 0 6.25 -23.36 0c0,-3.03 0.54,-5.66 1.64,-7.89 1.09,-2.23 2.96,-4.11 5.61,-5.66l5.02 -2.94c1.23,-0.73 2.1,-1.45 2.61,-2.16 0.51,-0.71 0.76,-1.57 0.76,-2.58 0,-1.04 -0.35,-1.91 -1.07,-2.6 -0.71,-0.7 -1.73,-1.04 -3.06,-1.04 -1.39,0 -2.46,0.43 -3.2,1.28 -0.74,0.85 -1.11,1.94 -1.11,3.27 0,0.66 0.09,1.29 0.28,1.9zm27.29 5.07l-3.22 -4.93 7.58 -6.21 -12.84 0 0 -6.25 22.17 0 0 5.78 -7.58 5.88c2.43,0.16 4.48,1.11 6.13,2.87 1.66,1.75 2.49,3.92 2.49,6.51 0,2.84 -1.1,5.28 -3.29,7.32 -2.2,2.04 -5.12,3.06 -8.79,3.06 -3.44,0 -6.27,-0.96 -8.48,-2.87 -2.21,-1.91 -3.44,-4.24 -3.69,-6.99l7.2 -1.33c0.06,1.39 0.54,2.54 1.44,3.46 0.9,0.91 2.06,1.37 3.48,1.37 1.39,0 2.5,-0.41 3.34,-1.23 0.84,-0.82 1.26,-1.82 1.26,-2.98 0,-1.36 -0.44,-2.39 -1.33,-3.1 -0.89,-0.71 -1.93,-1.07 -3.13,-1.07 -0.95,0 -1.86,0.24 -2.75,0.71z"/>
 </g>
</svg>
