<?xml version="1.0" encoding="UTF-8"?>
<!DOCTYPE svg PUBLIC "-//W3C//DTD SVG 1.1//EN" "http://www.w3.org/Graphics/SVG/1.1/DTD/svg11.dtd">
<!-- Creator: CorelDRAW 2019 (64-Bit) -->
<svg xmlns="http://www.w3.org/2000/svg" xml:space="preserve" width="16.2027mm" height="14.5764mm" version="1.1" style="shape-rendering:geometricPrecision; text-rendering:geometricPrecision; image-rendering:optimizeQuality; fill-rule:evenodd; clip-rule:evenodd"
viewBox="0 0 111.81 100.59"
 xmlns:xlink="http://www.w3.org/1999/xlink">
 <defs>
  <style type="text/css">
   <![CDATA[
    .fil0 {fill:#FEFEFE}
    .fil1 {fill:#FEFEFE;fill-rule:nonzero}
   ]]>
  </style>
 </defs>
 <g id="Capa_x0020_1">
  <metadata id="CorelCorpID_0Corel-Layer"/>
  <g id="_1921792368640">
   <g>
    <path class="fil0" d="M74.51 23.29c-1.78,0.25 -2.76,-1.51 -3.31,-2.77 -0.87,-2.01 -2.6,-2.49 -1.88,-3.92 0.9,-1.78 3.44,0.61 3.84,1.09 0.96,1.15 2.67,4.31 1.35,5.6zm-14.15 -12.68c-2.65,0.37 -4.19,0.93 -6.21,1.99 -1.63,0.86 -3.49,2.42 -4.48,3.65 -1.12,1.39 -2.5,3.28 -3,5.12 -0.53,1.96 -0.76,5.35 -0.51,7.53 0.32,2.78 0.71,4.16 1.96,6.15 3.22,5.13 9.53,8.65 16.38,7.72 4.95,-0.67 8.18,-2.98 10.59,-5.66 3.12,-3.47 3.93,-7.88 3.6,-12.63 -0.61,-8.56 -9.61,-15.09 -18.33,-13.88z"/>
    <path class="fil0" d="M24.33 4.87l2.45 3.17c4.19,5.21 8.29,10.63 12.47,15.83l4.96 6.32c-0.22,-2.62 -0.58,-3.37 -0.08,-6.45 0.86,-5.34 4.16,-9.88 8.64,-12.53 5,-2.95 11.37,-3.55 17.12,-1.08 1.78,0.77 2.99,1.6 4.45,2.71 -4.4,-5.84 -11.83,-10.31 -21.51,-11.62 -7.52,-1.02 -14.96,-0.25 -22.19,1.65 -1.2,0.31 -5.37,1.52 -6.3,2.01z"/>
    <path class="fil0" d="M51.55 41.36c4.64,5.75 13.62,9.7 21.44,10.43 5.19,0.48 9.87,0.42 14.86,-0.42 4.83,-0.81 8.46,-1.97 12.68,-3.35 -0.31,-0.51 -0.86,-1.13 -1.22,-1.59l-18.9 -23.94c2.17,8.97 -2.74,16 -7.66,19.23 -4.73,3.1 -10.88,4.05 -16.67,2 -1.24,-0.44 -3.78,-1.62 -4.52,-2.35z"/>
    <path class="fil0" d="M35.59 27.09c0,2.15 0.17,4.13 0.53,6.11 0.91,4.98 3.83,9.49 7.27,12.64 4.41,4.04 10.56,7.5 19.08,7.48 2.1,-0 3.54,-0.24 5.46,-0.51 -0.55,0.11 -5.1,-1.51 -5.83,-1.81 -7.16,-2.88 -13.21,-7.93 -16.15,-15.11 -0.44,-1.08 -0.74,-1.34 -1.55,-2.34l-8.6 -10.89c-0.24,1.19 -0.22,3.09 -0.22,4.43z"/>
    <path class="fil0" d="M58.16 0.37c2.68,0.31 8.22,3.06 10.58,4.62 5.03,3.31 8.04,7.05 10.32,12.48 0.23,0.54 1.22,1.68 1.61,2.17 0.56,0.7 1.08,1.37 1.67,2.12l6.66 8.47c0.25,-5.06 0.67,-8.96 -1.35,-13.69 -3,-7.03 -8.85,-12.4 -16.04,-14.94 -3.6,-1.27 -9.19,-2.13 -13.45,-1.23z"/>
   </g>
   <g>
    <path class="fil1" d="M3.78 71.32l2.19 0c0.71,0 1.29,-0.19 1.74,-0.58 0.44,-0.39 0.67,-0.91 0.67,-1.56 0,-0.67 -0.22,-1.19 -0.65,-1.58 -0.44,-0.39 -1.02,-0.58 -1.75,-0.58l-2.19 0 0 4.31zm2.57 3.24l-2.59 0 0 6.07 -3.76 0 0 -16.87 6.35 0c1.71,0 3.11,0.51 4.18,1.52 1.07,1.02 1.61,2.31 1.61,3.88 0,1.6 -0.53,2.9 -1.61,3.9 -1.07,1 -2.46,1.5 -4.18,1.5zm7 2.81c0,-1 0.33,-1.8 0.98,-2.42 0.65,-0.61 1.49,-1 2.52,-1.15l2.78 -0.43c0.57,-0.08 0.86,-0.35 0.86,-0.81 0,-0.37 -0.15,-0.67 -0.46,-0.92 -0.31,-0.25 -0.73,-0.37 -1.27,-0.37 -0.6,0 -1.08,0.17 -1.44,0.51 -0.36,0.34 -0.55,0.75 -0.58,1.23l-3.14 -0.64c0.08,-0.98 0.57,-1.88 1.46,-2.7 0.9,-0.82 2.14,-1.22 3.72,-1.22 1.79,0 3.11,0.43 3.96,1.28 0.85,0.86 1.27,1.95 1.27,3.28l0 5.78c0,0.75 0.05,1.36 0.14,1.83l-3.26 0c-0.08,-0.32 -0.12,-0.76 -0.12,-1.33 -0.68,1.11 -1.79,1.67 -3.33,1.67 -1.25,0 -2.25,-0.35 -2.99,-1.06 -0.74,-0.71 -1.11,-1.55 -1.11,-2.53zm4.97 0.98c0.62,0 1.13,-0.18 1.55,-0.55 0.41,-0.37 0.62,-0.97 0.62,-1.81l0 -0.52 -2.24 0.36c-0.89,0.14 -1.33,0.58 -1.33,1.31 0,0.33 0.12,0.62 0.35,0.86 0.23,0.24 0.58,0.36 1.06,0.36zm16.25 -9.54l0 3.57c-0.33,-0.08 -0.71,-0.12 -1.14,-0.12 -0.81,0 -1.47,0.26 -1.99,0.79 -0.52,0.52 -0.77,1.33 -0.77,2.43l0 5.16 -3.62 0 0 -11.83 3.5 0 0 1.59c0.29,-0.6 0.72,-1.04 1.31,-1.31 0.59,-0.27 1.17,-0.4 1.76,-0.4 0.37,0 0.68,0.04 0.95,0.12zm4.78 4.5l4.73 0c-0.03,-0.54 -0.24,-1.01 -0.63,-1.4 -0.39,-0.4 -0.97,-0.59 -1.75,-0.59 -0.7,0 -1.25,0.21 -1.67,0.62 -0.41,0.41 -0.64,0.87 -0.69,1.38zm5 3.07l3.02 0.86c-0.3,1.09 -0.93,2 -1.88,2.7 -0.95,0.71 -2.14,1.06 -3.57,1.06 -1.71,0 -3.17,-0.57 -4.37,-1.71 -1.2,-1.14 -1.8,-2.67 -1.8,-4.59 0,-1.84 0.58,-3.34 1.75,-4.5 1.17,-1.16 2.55,-1.74 4.15,-1.74 1.84,0 3.29,0.54 4.34,1.61 1.06,1.07 1.58,2.56 1.58,4.46 0,0.6 -0.02,0.98 -0.07,1.12l-8.23 0c0.03,0.65 0.31,1.19 0.83,1.63 0.52,0.44 1.14,0.65 1.86,0.65 1.22,0 2.02,-0.52 2.38,-1.55zm9.18 4.26l-3.62 0 0 -11.83 3.62 0 0 11.83zm-3.31 -13.94c-0.41,-0.41 -0.62,-0.91 -0.62,-1.5 0,-0.59 0.21,-1.09 0.62,-1.5 0.41,-0.41 0.9,-0.62 1.48,-0.62 0.59,0 1.09,0.21 1.51,0.62 0.42,0.41 0.63,0.91 0.63,1.5 0,0.59 -0.21,1.09 -0.63,1.5 -0.42,0.41 -0.92,0.62 -1.51,0.62 -0.57,0 -1.06,-0.21 -1.48,-0.62zm10.47 10.4l2.19 0c1.38,0 2.51,-0.41 3.39,-1.24 0.88,-0.82 1.32,-2.04 1.32,-3.64 0,-1.62 -0.44,-2.84 -1.32,-3.66 -0.88,-0.83 -2.01,-1.24 -3.39,-1.24l-2.19 0 0 9.78zm2.33 3.55l-6.09 0 0 -16.87 6.12 0c2.55,0 4.6,0.76 6.15,2.28 1.55,1.52 2.32,3.58 2.32,6.16 0,2.59 -0.77,4.64 -2.32,6.15 -1.55,1.51 -3.61,2.27 -6.17,2.27zm16.49 -2.97c0.75,0 1.38,-0.25 1.89,-0.76 0.52,-0.51 0.77,-1.24 0.77,-2.19 0,-0.95 -0.26,-1.68 -0.77,-2.18 -0.52,-0.5 -1.15,-0.75 -1.89,-0.75 -0.73,0 -1.36,0.25 -1.88,0.76 -0.52,0.51 -0.79,1.23 -0.79,2.17 0,0.94 0.26,1.66 0.79,2.18 0.52,0.52 1.15,0.77 1.88,0.77zm0 -9.21c1.79,0 3.29,0.59 4.49,1.76 1.2,1.17 1.8,2.67 1.8,4.5 0,1.82 -0.6,3.33 -1.8,4.51 -1.2,1.18 -2.69,1.77 -4.49,1.77 -1.78,0 -3.27,-0.59 -4.47,-1.78 -1.21,-1.19 -1.81,-2.69 -1.81,-4.5 0,-1.81 0.6,-3.3 1.81,-4.48 1.21,-1.18 2.7,-1.77 4.47,-1.77zm12.23 12.18l-3.62 0 0 -17.23 3.62 0 0 17.23zm6.81 0l-3.62 0 0 -11.83 3.62 0 0 11.83zm-3.31 -13.94c-0.41,-0.41 -0.62,-0.91 -0.62,-1.5 0,-0.59 0.21,-1.09 0.62,-1.5 0.41,-0.41 0.9,-0.62 1.48,-0.62 0.59,0 1.09,0.21 1.51,0.62 0.42,0.41 0.63,0.91 0.63,1.5 0,0.59 -0.21,1.09 -0.63,1.5 -0.42,0.41 -0.92,0.62 -1.51,0.62 -0.57,0 -1.06,-0.21 -1.48,-0.62zm5.76 10.68c0,-1 0.33,-1.8 0.98,-2.42 0.65,-0.61 1.49,-1 2.52,-1.15l2.78 -0.43c0.57,-0.08 0.86,-0.35 0.86,-0.81 0,-0.37 -0.15,-0.67 -0.46,-0.92 -0.31,-0.25 -0.73,-0.37 -1.27,-0.37 -0.6,0 -1.08,0.17 -1.44,0.51 -0.36,0.34 -0.55,0.75 -0.58,1.23l-3.14 -0.64c0.08,-0.98 0.57,-1.88 1.46,-2.7 0.9,-0.82 2.14,-1.22 3.72,-1.22 1.79,0 3.11,0.43 3.96,1.28 0.85,0.86 1.27,1.95 1.27,3.28l0 5.78c0,0.75 0.05,1.36 0.14,1.83l-3.26 0c-0.08,-0.32 -0.12,-0.76 -0.12,-1.33 -0.68,1.11 -1.79,1.67 -3.33,1.67 -1.25,0 -2.25,-0.35 -2.99,-1.06 -0.74,-0.71 -1.11,-1.55 -1.11,-2.53zm4.97 0.98c0.62,0 1.13,-0.18 1.55,-0.55 0.41,-0.37 0.62,-0.97 0.62,-1.81l0 -0.52 -2.24 0.36c-0.89,0.14 -1.33,0.58 -1.33,1.31 0,0.33 0.12,0.62 0.35,0.86 0.23,0.24 0.58,0.36 1.06,0.36z"/>
    <path class="fil1" d="M27.97 96.88l3.07 -0.55c0.03,0.44 0.2,0.82 0.51,1.13 0.31,0.31 0.76,0.46 1.34,0.46 0.44,0 0.79,-0.1 1.02,-0.3 0.24,-0.2 0.36,-0.44 0.36,-0.73 0,-0.48 -0.39,-0.8 -1.17,-0.98l-1.36 -0.31c-1.21,-0.25 -2.09,-0.7 -2.67,-1.34 -0.57,-0.64 -0.86,-1.41 -0.86,-2.3 0,-1.09 0.43,-2.02 1.3,-2.78 0.86,-0.76 1.95,-1.14 3.25,-1.14 1.54,0 2.69,0.37 3.46,1.11 0.77,0.74 1.19,1.54 1.27,2.42l-3 0.55c-0.05,-0.43 -0.21,-0.78 -0.49,-1.05 -0.28,-0.27 -0.68,-0.4 -1.2,-0.4 -0.35,0 -0.65,0.1 -0.9,0.29 -0.25,0.19 -0.38,0.44 -0.38,0.74 0,0.48 0.31,0.77 0.93,0.88l1.57 0.31c1.19,0.24 2.09,0.69 2.71,1.36 0.62,0.67 0.93,1.45 0.93,2.36 0,1.1 -0.41,2.04 -1.24,2.82 -0.83,0.79 -1.98,1.18 -3.47,1.18 -0.87,0 -1.65,-0.13 -2.32,-0.38 -0.67,-0.25 -1.19,-0.58 -1.55,-0.99 -0.36,-0.41 -0.63,-0.81 -0.81,-1.2 -0.18,-0.4 -0.29,-0.78 -0.32,-1.14zm16.39 -11.92l0 3.45 2.31 0 0 3.16 -2.31 0 0 4.43c0,0.83 0.44,1.24 1.31,1.24 0.29,0 0.6,-0.04 0.95,-0.12l0 3c-0.44,0.22 -1.07,0.33 -1.88,0.33 -1.22,0 -2.18,-0.34 -2.89,-1.02 -0.71,-0.68 -1.06,-1.61 -1.06,-2.78l0 -5.07 -2.09 0 0 -3.16 0.59 0c0.6,0 1.06,-0.18 1.37,-0.54 0.31,-0.36 0.46,-0.82 0.46,-1.39l0 -1.52 3.24 0zm12.61 15.28c-0.06,-0.29 -0.1,-0.68 -0.1,-1.19 -0.29,0.48 -0.72,0.84 -1.31,1.08 -0.59,0.25 -1.21,0.37 -1.86,0.37 -1.4,0 -2.49,-0.44 -3.3,-1.32 -0.8,-0.88 -1.2,-1.98 -1.2,-3.3l0 -7.47 3.62 0 0 6.71c0,0.6 0.16,1.09 0.49,1.47 0.33,0.38 0.8,0.57 1.42,0.57 0.6,0 1.08,-0.19 1.44,-0.56 0.36,-0.37 0.53,-0.86 0.53,-1.46l0 -6.73 3.62 0 0 9.71c0,0.78 0.04,1.48 0.12,2.12l-3.47 0zm18.15 -17.23l0 15.11c0,0.71 0.03,1.42 0.1,2.12l-3.47 0c-0.06,-0.38 -0.1,-0.76 -0.1,-1.14 -0.29,0.41 -0.71,0.75 -1.27,1.01 -0.56,0.26 -1.19,0.39 -1.89,0.39 -1.68,0 -3.08,-0.58 -4.19,-1.75 -1.11,-1.17 -1.67,-2.65 -1.67,-4.46 0,-1.78 0.54,-3.25 1.62,-4.41 1.08,-1.17 2.45,-1.75 4.12,-1.75 1.62,0 2.68,0.4 3.19,1.21l0 -6.33 3.57 0zm-8.08 9.14c-0.52,0.51 -0.77,1.23 -0.77,2.17 0,0.94 0.26,1.66 0.77,2.18 0.52,0.52 1.15,0.77 1.89,0.77 0.75,0 1.38,-0.26 1.89,-0.77 0.52,-0.52 0.77,-1.24 0.77,-2.18 0,-0.94 -0.26,-1.66 -0.77,-2.17 -0.52,-0.51 -1.15,-0.76 -1.89,-0.76 -0.75,0 -1.38,0.25 -1.89,0.76zm14.95 8.09l-3.62 0 0 -11.83 3.62 0 0 11.83zm-3.31 -13.94c-0.41,-0.41 -0.62,-0.91 -0.62,-1.5 0,-0.59 0.21,-1.09 0.62,-1.5 0.41,-0.41 0.9,-0.62 1.48,-0.62 0.59,0 1.09,0.21 1.51,0.62 0.42,0.41 0.63,0.91 0.63,1.5 0,0.59 -0.21,1.09 -0.63,1.5 -0.42,0.41 -0.92,0.62 -1.51,0.62 -0.57,0 -1.06,-0.21 -1.48,-0.62zm11.9 10.97c0.75,0 1.38,-0.25 1.89,-0.76 0.52,-0.51 0.77,-1.24 0.77,-2.19 0,-0.95 -0.26,-1.68 -0.77,-2.18 -0.52,-0.5 -1.15,-0.75 -1.89,-0.75 -0.73,0 -1.36,0.25 -1.88,0.76 -0.52,0.51 -0.79,1.23 -0.79,2.17 0,0.94 0.26,1.66 0.79,2.18 0.52,0.52 1.15,0.77 1.88,0.77zm0 -9.21c1.79,0 3.29,0.59 4.49,1.76 1.2,1.17 1.8,2.67 1.8,4.5 0,1.82 -0.6,3.33 -1.8,4.51 -1.2,1.18 -2.69,1.77 -4.49,1.77 -1.78,0 -3.27,-0.59 -4.47,-1.78 -1.21,-1.19 -1.81,-2.69 -1.81,-4.5 0,-1.81 0.6,-3.3 1.81,-4.48 1.21,-1.18 2.7,-1.77 4.47,-1.77z"/>
   </g>
  </g>
 </g>
</svg>
